<?xml version="1.0" standalone="no"?>
<!DOCTYPE svg PUBLIC "-//W3C//DTD SVG 1.1//EN" "http://www.w3.org/Graphics/SVG/1.1/DTD/svg11.dtd" >
<svg xmlns="http://www.w3.org/2000/svg" xmlns:xlink="http://www.w3.org/1999/xlink" version="1.1">
<metadata></metadata>
<defs>
<font id="aktivgrotesk-mediuploadedfile" horiz-adv-x="1212" >
<font-face units-per-em="2048" ascent="1595" descent="-453" />
<missing-glyph horiz-adv-x="456" />
<glyph unicode="&#xfb01;" horiz-adv-x="1232" d="M33 881v184h166v61q0 86 24 151q23 62 69 108q45 45 104 67q63 24 132 25q16 2 25 1q8 -1 29 -1q39 -4 82 -9q46 -5 84 -18l-35 -174q-66 18 -123 18q-66 0 -112 -37t-46 -124v-68h258v-184h-258v-881h-233v881h-166zM860 1231v231h242v-231h-242zM864 0v1065h234v-1065 h-234z" />
<glyph unicode="&#xfb02;" horiz-adv-x="1232" d="M33 881v184h166v61q0 86 24 151q23 62 69 108q45 45 104 67q63 24 132 25q16 2 25 1q8 -1 29 -1q39 -4 82 -9q46 -5 84 -18l-35 -174q-66 18 -123 18q-66 0 -112 -37t-46 -124v-68h258v-184h-258v-881h-233v881h-166zM864 0v1462h234v-1462h-234z" />
<glyph unicode="&#xfb03;" horiz-adv-x="1961" d="M33 881v184h166v61q0 86 24 151q23 62 69 108q45 45 104 67q63 24 132 25q16 2 25 1q8 -1 29 -1q39 -4 82 -9q46 -5 84 -18l-35 -174q-66 18 -123 18q-66 0 -112 -37t-46 -124v-68h258v-184h-258v-881h-233v881h-166zM762 881v184h166v61q0 86 24 151q23 62 69 108 q45 45 104 67q63 24 132 25q17 2 25 1t29 -1q39 -4 82 -9q46 -5 84 -18l-35 -174q-66 18 -123 18q-66 0 -112 -37t-46 -124v-68h258v-184h-258v-881h-233v881h-166zM1589 1231v231h242v-231h-242zM1593 0v1065h234v-1065h-234z" />
<glyph unicode="&#xfb04;" horiz-adv-x="1961" d="M33 881v184h166v61q0 86 24 151q23 62 69 108q45 45 104 67q63 24 132 25q16 2 25 1q8 -1 29 -1q39 -4 82 -9q46 -5 84 -18l-35 -174q-66 18 -123 18q-66 0 -112 -37t-46 -124v-68h258v-184h-258v-881h-233v881h-166zM762 881v184h166v61q0 86 24 151q23 62 69 108 q45 45 104 67q63 24 132 25q17 2 25 1t29 -1q39 -4 82 -9q46 -5 84 -18l-35 -174q-66 18 -123 18q-66 0 -112 -37t-46 -124v-68h258v-184h-258v-881h-233v881h-166zM1593 0v1462h234v-1462h-234z" />
<glyph unicode="&#xd;" horiz-adv-x="456" />
<glyph horiz-adv-x="0" />
<glyph horiz-adv-x="0" />
<glyph unicode=" "  horiz-adv-x="456" />
<glyph unicode="&#x09;" horiz-adv-x="456" />
<glyph unicode="&#xa0;" horiz-adv-x="456" />
<glyph unicode="!" horiz-adv-x="516" d="M135 1462h248l-16 -1022h-215zM139 0v281h238v-281h-238z" />
<glyph unicode="&#x22;" horiz-adv-x="729" d="M76 1456h219l-14 -536h-191zM436 1456h217l-14 -536h-188z" />
<glyph unicode="#" d="M39 342v172h207l59 360h-199v173h228l55 342h203l-57 -342h272l55 342h201l-55 -342h161v-173h-188l-59 -360h176v-172h-207l-55 -342h-201l55 342h-272l-56 -342h-200l55 342h-178zM446 514h273l61 360h-272z" />
<glyph unicode="$" d="M70 422h229q10 -127 69 -187q58 -60 171 -75v461q-107 18 -188 48t-136 79q-57 51 -86 118q-32 73 -33 166q0 25 1 37q1 6 2 18.5t1 18.5q16 140 128 235q110 94 311 109v178h123v-178q123 -11 203 -49q81 -39 130 -94q48 -54 73 -122q23 -63 34 -130l-221 -33 q-24 110 -71 171t-148 73v-443l49 -8q204 -39 305 -138q100 -99 100 -290q0 -81 -27 -153q-27 -73 -83 -130q-54 -55 -142 -94q-84 -37 -202 -43v-205h-123v207q-121 7 -207 45q-88 39 -144 96q-58 60 -86 137q-27 76 -32 175zM326 1053q5 -87 50 -134q47 -49 163 -71v420 q-113 -12 -163 -67t-50 -116v-32zM662 158q118 11 166 69q51 62 51 154q0 28 -10 66q-9 34 -33 64q-23 28 -67 52t-107 35v-440z" />
<glyph unicode="%" horiz-adv-x="1933" d="M68 1004q0 112 27 196q26 82 77 139q50 56 117 83q70 28 145 28q163 0 266 -112t103 -334q0 -123 -30 -207t-80 -137q-47 -50 -118 -75q-67 -24 -141 -24q-169 0 -268 110q-98 108 -98 333zM266 1004q0 -152 42 -213q42 -62 126 -62t127 63q43 62 43 212q0 147 -43 211 q-44 65 -127 65q-81 0 -125 -65q-43 -64 -43 -211zM494 0l714 1415h230l-717 -1415h-227zM1130 403q0 110 28 197q26 82 77 139q50 56 117 83q70 28 145 28q163 0 266 -112t103 -335q0 -117 -29 -202q-28 -82 -79 -136q-50 -53 -118 -77q-70 -25 -143 -25q-171 0 -269 111 q-98 112 -98 329zM1329 403q0 -153 43 -212q44 -60 125 -60q84 0 128 62t44 210q0 147 -44 212t-128 65q-81 0 -125 -64q-43 -62 -43 -213z" />
<glyph unicode="&#x26;" horiz-adv-x="1337" d="M68 389q0 85 26 147q27 63 71 114q45 52 100 89q67 46 116 74q-56 62 -102 145q-48 87 -48 183q0 72 27 133t74 105q48 45 114 70q69 26 148 26q154 0 247 -75t109 -196q4 -15 4 -33v-32q-5 -68 -28 -119q-22 -49 -63 -96q-36 -42 -88 -78q-61 -42 -101 -66l307 -362 q28 71 40 143q11 69 13 152h211q-1 -125 -37 -242t-94 -211l223 -260h-270l-92 109q-69 -61 -164 -102q-93 -40 -221 -40q-155 0 -254 37q-104 39 -161 96q-60 60 -84 136q-23 73 -23 153zM301 420q0 -58 15 -107q15 -48 52 -84q35 -34 94 -55q56 -20 146 -20q87 0 146 25 q57 24 100 67l-367 432q-75 -43 -131 -106q-55 -62 -55 -152zM444 1137q0 -38 14 -74q16 -40 32 -65q18 -28 41 -54q30 -34 38 -43l17 8q30 16 62 42q28 22 52 53q21 27 37 63q15 35 15 78q0 78 -41 119t-111 41q-156 0 -156 -168z" />
<glyph unicode="'" horiz-adv-x="382" d="M76 1456h231l-14 -536h-203z" />
<glyph unicode="(" horiz-adv-x="575" d="M94 625q0 112 15 229q15 116 45 229q31 118 76 220q45 103 108 200h219q-120 -210 -170 -428q-49 -212 -49 -450q0 -242 49 -453q50 -216 170 -426h-219q-117 178 -180 405q-64 230 -64 474z" />
<glyph unicode=")" horiz-adv-x="575" d="M16 -254q119 215 170 426q52 217 52 453q0 235 -53 450q-53 216 -169 428h222q121 -190 181 -418t60 -460q0 -254 -64 -477q-64 -222 -177 -402h-222z" />
<glyph unicode="*" horiz-adv-x="825" d="M51 1137l80 186l215 -119l-41 258h217l-41 -258l215 119l78 -186l-250 -66l199 -207l-168 -119l-141 228l-142 -228l-168 119l199 207z" />
<glyph unicode="+" d="M125 596v203h377v405h209v-405h376v-203h-376v-406h-209v406h-377z" />
<glyph unicode="," horiz-adv-x="473" d="M74 -195l65 482h234l-119 -482h-180z" />
<glyph unicode="-" horiz-adv-x="798" d="M96 489v232h606v-232h-606z" />
<glyph unicode="." horiz-adv-x="473" d="M113 0v285h247v-285h-247z" />
<glyph unicode="/" horiz-adv-x="731" d="M14 0l469 1503h234l-469 -1503h-234z" />
<glyph unicode="0" d="M78 709q0 374 138 560q137 185 394 185q248 0 386 -181q139 -183 139 -564q0 -194 -36 -335q-36 -140 -105 -232t-168 -135q-100 -44 -224 -44t-220 43q-99 44 -165 134q-67 90 -103 233q-36 141 -36 336zM322 709q0 -264 64 -402q64 -139 218 -139q79 0 134 38 q53 37 88 107t50 170t15 226q0 123 -15 223q-15 99 -50 171q-35 71 -88 108q-55 38 -134 38q-80 0 -134 -39t-87 -109q-31 -67 -47 -170q-14 -92 -14 -222z" />
<glyph unicode="1" d="M180 1141l438 274h205v-1415h-237v1151l-303 -182z" />
<glyph unicode="2" d="M100 1042q17 79 53 157q34 74 94 131q57 54 149 90q87 34 216 34q227 0 346 -116t119 -308q0 -120 -44 -216q-44 -95 -125 -187q-90 -102 -194 -192q-114 -99 -255 -228h637l-29 -207h-952v145v37q179 157 287 245q137 112 228 203q96 96 149 186q55 93 55 200t-61 171 q-59 62 -165 62q-127 0 -190 -54q-64 -55 -94 -183z" />
<glyph unicode="3" d="M88 420h236q15 -142 76 -198q62 -58 200 -58q122 0 191 57t69 182q0 123 -64 175q-65 53 -190 53h-153v207h163q177 0 201 155q14 41 8 103q-12 82 -71 119q-61 38 -154 38q-123 0 -185 -52q-63 -53 -93 -169l-222 31q16 79 51 150q36 74 93 125q62 56 146 85 q90 31 212 31q116 0 207 -31q86 -29 145 -82t85 -118q28 -70 28 -144q0 -225 -197 -327q124 -51 177 -141q53 -89 53 -199q0 -209 -124 -329t-372 -120q-146 0 -246 41q-96 39 -156 107q-59 67 -84 147q-26 82 -30 162z" />
<glyph unicode="4" d="M66 334v166l661 915h219v-893h187l-29 -188h-158v-334h-223v334h-657zM307 522h416v588z" />
<glyph unicode="5" d="M121 387h231q7 -53 26 -97q19 -45 47 -70q31 -28 76 -41t111 -13q119 0 184 68q66 69 66 223q0 134 -62 202q-64 70 -192 70q-83 0 -147 -28q-61 -27 -111 -80h-198l67 794h793v-205h-600l-33 -370q54 37 128 59q71 21 146 21q122 0 205 -40t136 -105q52 -64 76 -147 q24 -82 24 -167q0 -129 -36 -222q-36 -92 -100 -155q-62 -61 -150 -91q-87 -30 -187 -30q-234 0 -359 104t-141 320z" />
<glyph unicode="6" d="M113 614q0 238 43 397q44 162 116 259q72 96 173 141q98 43 212 43q203 0 305 -84q101 -83 134 -258l-215 -31l-9 21q-21 48 -27 59q-13 23 -32 42q-15 15 -43 29q-21 10 -59 17q-43 8 -97 2q-130 -11 -198 -135q-69 -126 -76 -354q63 78 148 115q83 36 196 38 q110 0 189 -32q83 -34 135 -95t79 -147q27 -85 27 -192q0 -119 -39 -210q-39 -92 -106 -153q-68 -62 -158 -92q-93 -31 -195 -31q-152 0 -250 60t-154 153q-57 94 -78 210t-21 228zM360 436q0 -53 17 -106q17 -51 48 -90q31 -38 79 -63q45 -23 112 -23q118 0 195 72 q76 72 76 218q0 124 -59 204q-58 79 -195 79q-63 0 -111 -17q-53 -19 -89 -55q-37 -37 -58 -91t-15 -128z" />
<glyph unicode="7" d="M90 1210v205h981v-186q-158 -290 -281 -597q-118 -295 -208 -632h-260q192 646 487 1210h-719z" />
<glyph unicode="8" d="M78 391q0 69 20 119q21 54 54 95q36 46 74 73q46 33 85 49q-90 40 -143 124q-53 83 -53 206q0 83 28 154q29 74 89 126q61 53 153 85q93 32 219 32q130 0 224 -32q92 -31 153 -86q58 -52 86 -127q27 -72 27 -154q0 -121 -54 -203q-53 -81 -143 -121q43 -20 88 -51 q39 -27 77 -73q32 -39 53 -95q20 -54 20 -121q0 -193 -133 -311q-132 -117 -398 -117q-268 0 -397 117t-129 311zM309 391q0 -112 71 -177t226 -65q154 0 227 67q72 66 72 179q0 51 -15 93q-15 43 -50 73q-34 30 -92 48q-57 18 -142 18q-87 0 -145 -20q-56 -19 -91 -51 q-33 -30 -47 -75t-14 -90zM336 1042q0 -117 64 -171t206 -54t203 57t61 173q0 47 -13 86q-14 41 -45 71q-33 31 -82 49q-52 19 -124 19t-126 -20q-52 -20 -84 -51q-30 -30 -46 -73q-14 -38 -14 -86z" />
<glyph unicode="9" d="M88 969q0 105 35 195q35 91 100 154t158 100q92 36 209 36q153 0 251 -63q95 -61 153 -162q57 -99 78 -217q22 -124 22 -230q0 -223 -33 -379q-33 -154 -97 -253q-65 -99 -160 -143q-96 -44 -222 -44q-217 0 -332 89q-114 89 -131 282h223q18 -91 69 -134q49 -42 164 -42 q153 0 220 118t69 381q-128 -159 -342 -159q-218 0 -326 128t-108 343zM319 973q0 -58 14 -112q14 -53 43 -91q30 -39 79 -61q51 -23 120 -23q59 0 107 16q47 16 86 53q35 34 57 90q21 54 21 128q-1 58 -20 112q-19 55 -49 94q-30 38 -79 62q-48 23 -108 23q-121 0 -196 -75 t-75 -216z" />
<glyph unicode=":" horiz-adv-x="473" d="M113 0v285h247v-285h-247zM113 780v285h247v-285h-247z" />
<glyph unicode=";" horiz-adv-x="473" d="M74 -195l65 482h234l-119 -482h-180zM113 780v285h247v-285h-247z" />
<glyph unicode="&#x3c;" d="M154 604v180l927 420v-219l-657 -289l657 -288v-224z" />
<glyph unicode="=" d="M160 369v204h893v-204h-893zM160 823v205h893v-205h-893z" />
<glyph unicode="&#x3e;" d="M131 184v222l655 284l-655 293v221l928 -420v-180z" />
<glyph unicode="?" horiz-adv-x="1038" d="M31 1087q16 84 49 153q35 73 93 128q59 56 143 87q87 32 204 32q212 0 330 -104q117 -103 117 -271q0 -98 -30 -166q-31 -70 -73 -115l-125 -124q-53 -54 -88 -109q-35 -56 -35 -127v-31h-229v41q0 55 15 102q15 45 41 84q23 33 58 72q42 46 66 70l60 59q41 40 69 90 q29 50 29 125q0 99 -54 153t-153 54q-120 0 -182 -54t-90 -177zM381 0v281h240v-281h-240z" />
<glyph unicode="@" horiz-adv-x="2004" d="M98 406q0 246 87 432q86 184 225 311q135 123 308 187q171 63 339 63q183 0 341 -50q155 -49 272 -148q116 -98 181 -240q66 -144 66 -330q0 -164 -41 -287q-40 -119 -109 -199q-67 -77 -153 -115q-87 -38 -174 -38q-104 0 -169 34q-67 35 -83 126q-68 -100 -144 -137 q-78 -38 -167 -38q-87 0 -153 32q-63 31 -108 85q-41 49 -63 125q-21 72 -21 150q0 122 35 232q34 105 98 185q65 80 150 122q90 44 193 44q79 0 139 -33q65 -35 110 -110q5 29 12 60q4 17 11 61h209l-117 -666q-2 -10 -2 -28q0 -86 82 -86q53 0 102 26q53 28 91 85 q39 58 63 148q25 92 25 216q0 153 -50 268q-49 114 -138 189t-214 113q-126 38 -274 38q-161 0 -303 -61t-242 -167q-103 -109 -161 -260q-58 -150 -58 -331q0 -150 44 -279q43 -127 131 -219t216 -143q132 -52 297 -52q87 0 165 13q73 12 128 36q56 24 97 55q42 32 77 71 h221q-39 -74 -100 -134q-60 -58 -151 -107q-86 -46 -199 -73q-108 -26 -248 -26q-209 0 -372 63q-160 62 -273 176q-109 111 -169 270q-59 157 -59 341zM756 391q0 -119 46 -175t120 -56q62 0 106 22q47 23 76 60q32 41 49 86q19 53 29 104l12 72q0 4 1 8.5t2 8.5t1 6 q1 5 0.5 4.5t-2.5 -5.5l2 43q0 17 1 26q1 10 -1 26q-7 77 -53 118t-119 41q-58 0 -106 -26q-47 -26 -86 -77q-36 -48 -58 -122q-20 -69 -20 -164z" />
<glyph unicode="A" horiz-adv-x="1404" d="M23 0l557 1462h245l557 -1462h-264l-137 373h-567l-135 -373h-256zM481 580h432l-217 602z" />
<glyph unicode="B" horiz-adv-x="1310" d="M156 0v1462h505q164 0 263 -29q103 -30 162 -82q61 -53 83 -123q23 -72 23 -151q0 -91 -41 -171q-40 -78 -150 -130q71 -31 115 -69t72 -83q26 -41 37 -93q10 -46 10 -97q0 -88 -28 -170q-27 -78 -91 -138q-61 -56 -166 -92q-101 -34 -252 -34h-542zM395 199h295 q90 0 147 16q56 16 92 47q32 28 48 74q14 41 14 96q0 111 -62 169t-216 58h-318v-460zM395 862h295q145 0 203 53q57 53 57 154q0 105 -66 151q-65 46 -231 46h-258v-404z" />
<glyph unicode="C" horiz-adv-x="1458" d="M106 729q0 177 49 324q48 143 136 242q90 100 211 152q122 52 270 52q136 0 238 -35q100 -34 171 -99q69 -63 112 -155q42 -91 63 -200l-244 -35q-16 72 -41 131q-24 57 -64 97q-41 41 -98 62t-137 21q-98 0 -174 -39q-75 -38 -128 -111q-51 -70 -79 -175 q-26 -98 -26 -230q0 -129 27 -231q27 -100 81 -175q54 -74 128 -111q76 -38 171 -38q86 0 147 23t101 63t64 99q23 56 34 133h262q-12 -117 -55 -211q-44 -98 -119 -168q-76 -71 -184 -112q-107 -40 -252 -40q-156 0 -282 53q-119 50 -208 153q-85 99 -129 242 q-45 147 -45 318z" />
<glyph unicode="D" horiz-adv-x="1486" d="M156 0v1462h528q161 0 291 -44q128 -43 219 -134q90 -90 138 -226t48 -319q0 -182 -51 -320q-52 -140 -147 -232q-96 -93 -235 -140t-312 -47h-479zM403 211h240q130 0 220 37q92 38 150 106q57 68 85 166q26 92 26 217q0 241 -102 378q-102 136 -336 136h-283v-1040z " />
<glyph unicode="E" horiz-adv-x="1226" d="M156 0v1462h972v-213h-725v-389h684v-215h-684v-432h764l-28 -213h-983z" />
<glyph unicode="F" horiz-adv-x="1175" d="M156 0v1462h934v-213h-687v-413h646v-215h-646v-621h-247z" />
<glyph unicode="G" horiz-adv-x="1476" d="M107 729q0 177 47 321q45 139 133 242q87 102 209 154q124 53 274 53q134 0 232 -34q102 -36 168 -93q70 -61 111 -138q42 -80 60 -169l-243 -35q-17 65 -40 110q-24 47 -62 81q-36 31 -93 50q-52 17 -133 17q-103 0 -179 -40q-78 -41 -128 -113q-52 -75 -76 -177 q-25 -106 -25 -227q0 -125 25 -231q24 -100 78 -175q53 -73 134 -112t196 -39q98 0 184 22q80 20 158 74v297h-324v209h553v-602q-113 -106 -266 -158q-154 -53 -309 -53q-171 0 -298 54q-128 54 -214 154q-85 98 -129 241q-43 139 -43 317z" />
<glyph unicode="H" horiz-adv-x="1464" d="M156 0v1462h247v-592h658v592h248v-1462h-248v641h-658v-641h-247z" />
<glyph unicode="I" horiz-adv-x="557" d="M156 0v1462h247v-1462h-247z" />
<glyph unicode="J" horiz-adv-x="1263" d="M57 471h248q7 -66 26 -122q19 -57 51 -92q36 -39 86 -59q55 -22 130 -22q150 0 213 86t63 246v954h248v-970q0 -263 -140 -396t-380 -133q-252 0 -389 123q-138 124 -156 385z" />
<glyph unicode="K" horiz-adv-x="1355" d="M156 0v1462h247v-643l613 643h274l-504 -549l560 -913h-281l-453 754l-209 -211v-543h-247z" />
<glyph unicode="L" horiz-adv-x="1173" d="M156 0v1462h247v-1247h725l-30 -215h-942z" />
<glyph unicode="M" horiz-adv-x="1746" d="M156 0v1462h301l415 -1163l428 1163h291v-1462h-227v1063l-401 -1063h-197l-387 1061v-1061h-223z" />
<glyph unicode="N" horiz-adv-x="1454" d="M156 0v1462h229l672 -1056v1056h241v-1462h-229l-674 1053v-1053h-239z" />
<glyph unicode="O" horiz-adv-x="1581" d="M106 729q0 179 50 324q49 143 139 242q91 100 217 152t281 52q156 0 282 -52q127 -52 215 -151q89 -99 136 -240q49 -145 49 -323q0 -177 -48 -324q-47 -143 -135 -242q-90 -100 -214 -152q-125 -52 -285 -52q-159 0 -284 52q-127 53 -216 151q-90 99 -138 241 q-49 145 -49 322zM362 731q0 -257 108 -406t321 -149q211 0 319 149q109 150 109 406q0 126 -28 232q-26 99 -81 174q-51 70 -133 110q-79 39 -186 39t-187 -39q-81 -40 -134 -110q-54 -72 -81 -174t-27 -232z" />
<glyph unicode="P" horiz-adv-x="1296" d="M156 0v1462h506q166 0 273 -37q109 -38 169 -98q62 -62 86 -142q24 -81 24 -169q0 -94 -24 -180q-24 -87 -87 -151q-63 -65 -169 -102q-108 -38 -268 -38h-267v-545h-243zM399 752h260q95 0 155 18q61 18 95 52q35 34 48 81q14 48 14 107q0 60 -15 107q-16 48 -50 77 q-37 31 -96 47q-58 16 -153 16h-258v-505z" />
<glyph unicode="Q" horiz-adv-x="1583" d="M106 729q0 175 49 322q47 142 138 242q92 101 216 153q127 53 284 53t286 -53q125 -51 214 -153q88 -100 134 -241q48 -147 48 -319q0 -187 -50 -331q-49 -142 -143 -240l178 -217l-151 -131l-185 225q-74 -36 -157 -56q-85 -20 -174 -20q-159 0 -288 53 q-125 52 -216 153q-88 99 -135 242q-48 147 -48 318zM362 731q0 -275 111 -417t344 -142q51 0 89 11q43 12 77 30l-180 219l153 129l172 -211q91 138 91 381q0 128 -27 230t-80 175q-52 71 -133 111q-79 39 -186 39q-109 0 -190 -39q-82 -39 -134 -111q-53 -73 -80 -175 t-27 -230z" />
<glyph unicode="R" horiz-adv-x="1316" d="M156 0v1462h499q166 0 274 -39t170 -101q64 -64 87 -138q24 -76 24 -150q0 -145 -56 -239q-57 -96 -181 -156l303 -639h-270l-263 582q-24 -2 -38 -3t-43 -1h-263v-578h-243zM399 786h275q84 0 139 18q56 18 87 49t45 77q13 43 13 100q0 51 -15 93t-51 72t-95 46 q-58 16 -148 16h-250v-471z" />
<glyph unicode="S" horiz-adv-x="1318" d="M68 446h249q16 -141 104 -208q87 -66 259 -66q84 0 141 18q54 17 92 50q35 31 50 72q14 39 14 89q0 36 -10 69q-10 34 -37 62q-30 31 -72 51q-44 21 -115 33l-186 35q-112 21 -197 51q-82 29 -144 81q-57 48 -88 123q-30 72 -30 177t42 183q41 77 116 130q74 53 175 78 q100 25 220 25q151 0 254 -35q104 -35 166 -91q63 -57 96 -130t45 -153l-233 -37q-28 122 -99 182q-69 59 -225 59q-87 0 -146 -15q-56 -14 -94 -43q-35 -27 -51 -64q-16 -38 -16 -74q0 -98 52 -144q51 -46 184 -73l202 -39q232 -44 340 -147q109 -104 109 -298 q0 -93 -34 -171q-34 -79 -103 -137q-67 -57 -173 -92q-102 -34 -241 -34q-282 0 -440 118q-160 119 -176 365z" />
<glyph unicode="T" horiz-adv-x="1249" d="M39 1247v215h1171v-215h-460v-1247h-248v1247h-463z" />
<glyph unicode="U" horiz-adv-x="1409" d="M133 592v870h246v-876q0 -206 75 -308t253 -102q176 0 248 102q73 103 73 308v876h248v-876q0 -168 -41 -288q-40 -118 -117 -193q-75 -73 -180 -108q-103 -34 -233 -34q-280 0 -426 151t-146 478z" />
<glyph unicode="V" horiz-adv-x="1396" d="M23 1462h276l401 -1126l408 1126h264l-555 -1462h-237z" />
<glyph unicode="W" horiz-adv-x="1945" d="M23 1462h278l270 -1110l279 1102h264l283 -1100l262 1108h264l-403 -1462h-248l-297 1151l-293 -1151h-240z" />
<glyph unicode="X" horiz-adv-x="1353" d="M18 0l512 772l-475 690h283l336 -512l340 512h266l-471 -700l528 -762h-284l-389 578l-377 -578h-269z" />
<glyph unicode="Y" horiz-adv-x="1300" d="M25 1462h276l352 -635l361 635h262l-498 -854v-608h-246v608z" />
<glyph unicode="Z" horiz-adv-x="1200" d="M55 0v184l787 1065h-772v213h1065v-186l-785 -1061h813l-28 -215h-1080z" />
<glyph unicode="[" horiz-adv-x="630" d="M152 -254v1757h458v-198h-223v-1360h223v-199h-458z" />
<glyph unicode="\" horiz-adv-x="731" d="M14 1503h230l473 -1503h-232z" />
<glyph unicode="]" horiz-adv-x="630" d="M20 -55h226v1360h-226v198h461v-1757h-461v199z" />
<glyph unicode="^" d="M94 612l416 846h190l416 -846h-244l-268 572l-270 -572h-240z" />
<glyph unicode="_" horiz-adv-x="1024" d="M0 -252h1024v-106h-1024v106z" />
<glyph unicode="`" horiz-adv-x="825" d="M156 1518h272l240 -304h-219z" />
<glyph unicode="a" horiz-adv-x="1124" d="M66 293q0 111 49 179q50 70 128 108q80 39 177 54q95 14 196 19l158 9v45q0 120 -58 166q-59 47 -153 47q-109 0 -161 -37q-51 -37 -68 -107l-213 23q28 155 141 227q112 72 309 72q127 0 210 -33t132 -90q50 -57 69 -136q19 -77 19 -173v-666h-223v139 q-61 -73 -145 -119q-86 -47 -209 -47q-73 0 -141 20q-67 20 -114 58q-49 40 -76 100t-27 142zM299 301q0 -69 44 -108q43 -39 130 -39q154 0 227 77q74 79 74 211v62l-149 -6q-102 -6 -169 -23q-66 -17 -100 -42t-46 -59q-11 -32 -11 -73z" />
<glyph unicode="b" horiz-adv-x="1249" d="M133 0v1462h232v-536q63 84 146 128t194 44q113 0 198 -41q82 -40 139 -115q56 -75 83 -177q28 -107 28 -228q0 -132 -33 -237q-34 -107 -94 -179q-62 -73 -147 -114q-84 -40 -193 -40q-97 0 -178 37q-82 38 -150 123v-127h-225zM362 498q1 -101 26 -168q24 -65 62 -105 q36 -38 87 -53q46 -14 102 -14q59 0 106 20t86 65q37 43 58 115q20 69 20 177q0 101 -21 171q-20 67 -57 114q-35 45 -82 65q-46 20 -100 20q-76 0 -130 -24t-89 -70q-34 -45 -51 -108q-17 -65 -17 -138v-51v-16z" />
<glyph unicode="c" horiz-adv-x="1155" d="M96 528q0 126 35 233q34 104 101 180q66 75 163 116t219 41q113 0 191 -30q77 -30 129 -80q51 -50 80 -116q30 -69 41 -137l-232 -35q-17 92 -62 150q-46 59 -155 59q-80 0 -129 -32q-53 -34 -82 -85q-31 -54 -44 -120q-13 -65 -13 -137q0 -86 14 -150q16 -71 45 -120 q30 -49 82 -80q49 -29 125 -29q107 0 162 56q55 57 70 161h235q-21 -190 -136 -298t-331 -108q-131 0 -224 40q-97 42 -159 114q-65 75 -94 177q-31 107 -31 230z" />
<glyph unicode="d" horiz-adv-x="1247" d="M96 530q0 115 29 219q28 100 84 176q55 74 136 119q82 46 187 50q27 2 41 1q28 -2 43 -3q71 -7 139 -40q65 -31 128 -106v516h231v-1462h-227v147q-66 -90 -149 -135q-82 -45 -193 -45q-114 0 -199 41q-83 40 -139 116t-83 178q-28 107 -28 228zM340 535q0 -105 19 -175 t56 -116q36 -45 83 -66q44 -20 102 -20q126 0 206 83q79 82 79 259v55q0 97 -22 169q-21 67 -59 109q-35 38 -88 57q-47 17 -106 17q-128 0 -199 -92t-71 -280z" />
<glyph unicode="e" horiz-adv-x="1187" d="M96 526q0 136 38 244q37 106 107 179q72 75 163 111q96 38 210 38q122 0 213 -38q89 -37 150 -107q59 -68 88 -163q29 -96 29 -212v-103h-764q5 -146 73 -235q69 -90 211 -90q111 0 166 43q56 44 74 122h225q-28 -165 -141 -257q-112 -91 -324 -91q-254 0 -386 147 t-132 412zM334 637h532q0 131 -61 207t-197 76q-128 0 -196 -77q-67 -76 -78 -206z" />
<glyph unicode="f" horiz-adv-x="729" d="M33 881v184h166v61q0 86 24 151q23 62 69 108q45 45 104 67q63 24 132 25q16 2 25 1q8 -1 29 -1q39 -4 82 -9q46 -5 84 -18l-35 -174q-66 18 -123 18q-66 0 -112 -37t-46 -124v-68h258v-184h-258v-881h-233v881h-166z" />
<glyph unicode="g" horiz-adv-x="1247" d="M96 559q0 111 30 208q30 98 87 170q58 74 141 115q85 42 193 44h18q27 0 56 -4q76 -11 141 -44q67 -34 127 -112v129h227v-918q0 -141 -26 -242q-28 -107 -85 -178q-59 -73 -153 -110q-93 -37 -229 -37q-241 0 -353 84q-113 84 -131 254h234q24 -154 217 -154h53 q78 1 125 32q48 31 73 79q25 49 33 113q9 76 9 135v72q-119 -168 -338 -168q-116 0 -200 40q-85 40 -140 110t-82 169t-27 213zM340 561q0 -97 21 -163q20 -64 57 -107q36 -42 82 -60t100 -18q150 0 217 90q68 91 68 256v12q0 98 -24 164q-25 68 -61 104q-38 38 -88 53 t-102 15q-129 0 -199 -88q-71 -89 -71 -258z" />
<glyph unicode="h" horiz-adv-x="1189" d="M133 0v1462h232v-544q69 93 156 136q90 44 190 44q356 0 356 -393v-705h-233v668q0 127 -48 181q-46 52 -139 52q-65 0 -116 -22t-89 -60q-35 -35 -57 -85q-20 -46 -20 -99v-635h-232z" />
<glyph unicode="i" horiz-adv-x="503" d="M131 1231v231h242v-231h-242zM135 0v1065h234v-1065h-234z" />
<glyph unicode="j" horiz-adv-x="503" d="M-160 -346l35 178q61 -18 131 -18q78 0 104 51q25 50 25 149v1051h234v-1073q0 -182 -75 -276q-75 -95 -247 -95q-108 0 -207 33zM131 1231v231h242v-231h-242z" />
<glyph unicode="k" horiz-adv-x="1126" d="M133 0v1462h227v-809l455 412h272l-385 -363l420 -702h-256l-331 569l-175 -155v-414h-227z" />
<glyph unicode="l" horiz-adv-x="503" d="M135 0v1462h234v-1462h-234z" />
<glyph unicode="m" horiz-adv-x="1777" d="M133 0v1065h225v-154q113 155 263 179q39 6 81 6q108 -5 177 -55q68 -50 98 -136q142 193 348 193q171 0 250 -94q80 -95 80 -302v-702h-234v639q0 80 -10 129q-11 51 -30 81q-18 28 -50 41q-27 11 -69 11q-64 0 -109 -22q-48 -23 -79 -60q-32 -38 -48 -83t-16 -95v-641 h-234v662q0 137 -42 188t-116 51q-31 0 -73 -13q-41 -13 -83 -44q-40 -29 -69 -82q-28 -50 -28 -125v-637h-232z" />
<glyph unicode="n" horiz-adv-x="1189" d="M133 0v1065h225v-156q72 99 161 144t192 45q356 0 356 -393v-705h-233v668q0 127 -48 181q-46 52 -139 52q-61 0 -113 -21t-90 -59q-37 -37 -58 -85t-21 -101v-635h-232z" />
<glyph unicode="o" horiz-adv-x="1247" d="M96 532q0 127 36 232q35 103 104 178q70 76 165 115q100 41 224 41q126 0 225 -42q98 -42 165 -116q65 -73 100 -177q34 -102 34 -226q0 -140 -39 -245q-39 -106 -110 -178q-72 -73 -166 -110q-95 -37 -213 -37q-251 0 -388 148t-137 417zM338 535q0 -175 66 -277 t219 -102q148 0 216 101t68 278q0 175 -68 274q-69 100 -216 100q-148 0 -216 -101q-69 -102 -69 -273z" />
<glyph unicode="p" horiz-adv-x="1249" d="M131 -397v1462h227v-147q65 87 151 134q85 46 196 46q113 0 196 -40q82 -40 140 -114q57 -74 84 -177q28 -107 28 -230q0 -130 -33 -235t-93 -180q-59 -74 -146 -115q-84 -40 -195 -40q-86 0 -168 33q-81 32 -153 121v-518h-234zM362 514q0 -102 23 -173q23 -70 60 -110 t89 -57q48 -16 105 -16q59 0 106 20q48 20 86 66q37 45 58 116q20 69 20 175q0 105 -21 175q-20 69 -58 114q-38 46 -82 63q-47 18 -99 18q-125 0 -206 -82q-81 -83 -81 -258v-51z" />
<glyph unicode="q" horiz-adv-x="1249" d="M96 530q0 113 28 219q26 99 83 176q55 74 137 119q83 46 191 50q18 2 35 2q26 0 51 -4q76 -11 141 -44q67 -34 127 -112v129h227v-1462h-233v538q-48 -68 -121 -114q-69 -43 -156 -54q-21 -4 -48 -4q-16 0 -48 2q-105 6 -182 49t-129 116t-77 173q-26 102 -26 221z M342 535q0 -105 19 -175q19 -68 55 -116q34 -44 82 -66q44 -20 102 -20q128 0 208 83q79 82 79 259v55q0 97 -22 169q-21 67 -59 109q-35 38 -89 57q-48 17 -107 17q-126 0 -197 -92t-71 -280z" />
<glyph unicode="r" horiz-adv-x="804" d="M133 0v1065h225v-158q55 84 134 129q78 45 165 45q27 0 59 -2q23 -1 46 -6l-27 -213q-25 7 -49 8q-36 2 -55 2q-65 0 -115 -21q-47 -20 -83 -56q-31 -31 -51 -79q-17 -41 -17 -89v-625h-232z" />
<glyph unicode="s" horiz-adv-x="1085" d="M70 326h223q6 -52 29 -87t56 -55q31 -19 79 -27t96 -8q116 0 168 35q51 35 51 103q0 52 -32 90q-31 36 -130 53q-137 24 -223 43q-99 22 -162 56q-65 35 -98 93q-33 57 -33 152q0 74 33 134q34 62 91 103q58 41 139 64q83 23 178 23q118 0 204 -25q83 -24 133 -67 q51 -44 78 -99q25 -52 41 -116l-209 -29q-24 80 -74 119t-167 39q-64 0 -111 -13q-44 -12 -69 -30q-25 -17 -34 -41q-10 -25 -10 -45q0 -31 9 -58q7 -21 29 -37q17 -12 59 -24q40 -11 92 -21l133 -22q104 -18 177 -47q71 -28 113 -71q41 -41 58 -97q17 -57 17 -123 q0 -147 -111 -235q-112 -89 -336 -89q-91 0 -177 18q-87 18 -153 58t-109 110q-42 69 -48 173z" />
<glyph unicode="t" horiz-adv-x="743" d="M29 881v184h168v287h231v-287h264v-184h-264v-557q0 -82 34 -119t99 -37q39 0 67 4q37 5 62 14l35 -174q-96 -32 -213 -32q-177 0 -246 91t-69 273v537h-168z" />
<glyph unicode="u" horiz-adv-x="1175" d="M125 358v707h231v-670q0 -132 44 -182q43 -49 135 -49q49 0 99 18q47 17 89 54q40 35 63 83q25 52 25 111v635h233v-1065h-227v156q-73 -98 -160 -144q-85 -45 -184 -45q-186 0 -267 96t-81 295z" />
<glyph unicode="v" horiz-adv-x="1114" d="M14 1065h271l276 -803l281 803h258l-424 -1065h-240z" />
<glyph unicode="w" horiz-adv-x="1542" d="M14 1065h254l181 -778l225 770h213l217 -770l180 778h244l-311 -1065h-232l-215 774l-217 -774h-229z" />
<glyph unicode="x" horiz-adv-x="1075" d="M20 0l388 553l-353 512h275l217 -340l233 340h244l-346 -502l379 -563h-271l-254 389l-258 -389h-254z" />
<glyph unicode="y" horiz-adv-x="1116" d="M14 1065h271l293 -768l268 768h254l-424 -1075q-39 -99 -70 -166q-32 -69 -74 -121q-41 -50 -97 -75t-138 -25q-56 0 -98 7q-53 9 -97 23l43 179q54 -19 117 -19q62 0 96 30q37 33 66 111l39 103z" />
<glyph unicode="z" horiz-adv-x="991" d="M66 0v164l569 717h-557v184h850v-164l-568 -717h596l-26 -184h-864z" />
<glyph unicode="{" horiz-adv-x="634" d="M51 526v197h12q73 0 103 40q31 42 31 107v355q0 88 23 140q25 55 69 85q45 30 106 42q56 11 140 11h90v-194h-95q-70 0 -91 -41q-21 -40 -21 -101v-323q0 -78 -24 -135t-101 -84q70 -23 97 -75q28 -54 28 -118v-350q0 -59 21 -100t91 -41h95v-195h-90q-84 0 -140 11 q-61 12 -106 42q-44 30 -69 85q-23 52 -23 141v342q0 77 -30 118t-104 41h-12z" />
<glyph unicode="|" horiz-adv-x="516" d="M147 -254v1757h222v-1757h-222z" />
<glyph unicode="}" horiz-adv-x="634" d="M10 -59h94q71 0 92 41q21 40 21 100v350q0 64 28 118q27 52 97 75q-77 27 -101 84t-24 135v323q0 61 -21 101q-21 41 -92 41h-94v194h90q81 0 139 -11q62 -12 107 -42q44 -30 69 -85q23 -52 23 -140v-355q0 -65 31 -107q30 -40 102 -40h13v-197h-13q-73 0 -103 -41 t-30 -118v-342q0 -89 -23 -141q-25 -55 -69 -85q-45 -30 -107 -42q-58 -11 -139 -11h-90v195z" />
<glyph unicode="~" d="M74 487q0 213 80 305q79 91 233 91q61 0 117 -29q60 -31 106 -62q37 -25 99 -63q47 -29 94 -29q64 0 94 40q31 42 31 128h207q0 -214 -80 -305q-80 -90 -230 -90q-53 0 -107 26q-52 25 -102 57q-14 9 -45.5 29.5t-48.5 30.5q-47 30 -86 37q-31 6 -57 -4q-83 -6 -88 -117 q-47 -8 -93 -18q-44 -10 -89 -27h-35z" />
<glyph unicode="&#xa1;" horiz-adv-x="516" d="M133 -397l17 1020h215l18 -1020h-250zM139 782v283h238v-283h-238z" />
<glyph unicode="&#xa2;" d="M131 715q0 111 29 209t85 170q57 74 139 120q86 48 189 60v186h123v-184q96 -6 168 -37q68 -30 118 -78q48 -47 75 -109q27 -63 39 -132l-230 -39q-12 78 -51 132q-38 53 -119 70v-727q105 18 129 136q60 12 98 29q42 19 83 44h104q-22 -175 -122 -282 q-99 -107 -292 -119v-184h-123v186q-225 22 -333 167q-109 145 -109 382zM369 721q0 -59 9 -119q9 -58 32 -109q24 -52 62 -86q42 -38 101 -49v723q-60 -12 -100 -47q-37 -33 -62 -84q-24 -50 -33 -108q-9 -60 -9 -121z" />
<glyph unicode="&#xa3;" d="M123 618v185h131q-9 57 -14 92q-7 54 -7 106q0 113 35 200q33 81 96 141q60 57 140 84q82 28 172 28q120 0 200 -30q79 -30 126 -78q48 -50 72 -111t36 -125l-201 -35q-13 48 -28 81q-16 35 -42 58t-63 35q-41 13 -90 13q-122 0 -178 -70q-55 -68 -55 -182q0 -29 2 -71 q1 -31 6 -54l12 -82h447v-185h-422q1 -6 2.5 -17.5t1.5 -16.5q2 -22 2 -31q0 -91 -18 -183q-18 -94 -76 -167h733l-29 -203h-948q0 58 1 87t1 87q64 75 92 156q27 80 27 178q0 27 -3 51q-1 8 -4 28t-4 31h-153z" />
<glyph unicode="&#xa4;" d="M102 266l121 125q-82 128 -82 299q0 82 22 162q20 72 62 141l-123 125l144 137l125 -137q54 33 107 49q62 19 130 19q63 0 123 -18q63 -19 111 -50l125 137l141 -137l-121 -125q39 -66 60 -139q20 -70 20 -158t-21 -165q-20 -73 -61 -136l123 -129l-141 -135l-125 135 q-51 -30 -111 -48q-57 -17 -125 -17q-74 0 -129 16t-108 47l-123 -133zM338 692q0 -144 61 -232q62 -89 205 -89q142 0 203 90q61 89 61 231q0 145 -61 234q-61 90 -203 90q-73 0 -125 -26t-83 -69t-45 -103q-13 -56 -13 -126z" />
<glyph unicode="&#xa5;" d="M35 1415h250l327 -624l332 624h234l-340 -610h245v-170h-348l-12 -29v-139h360v-168h-360v-299h-227v299h-359v168h359v139l-15 29h-344v170h240z" />
<glyph unicode="&#xa6;" horiz-adv-x="516" d="M147 -254v723h222v-723h-222zM147 815v688h222v-688h-222z" />
<glyph unicode="&#xa7;" horiz-adv-x="1112" d="M78 143h229q15 -123 83 -163q70 -41 181 -41q128 0 175 38q49 40 49 105q0 22 -7 50q-6 23 -24 44t-53 39t-93 35l-182 45q-98 22 -163 54q-63 31 -104 75q-39 42 -56 98q-17 57 -17 123q0 89 48 155t141 107q-85 34 -134 100t-49 173q0 73 33 133t92 101q62 44 145 64 q86 21 189 21q126 0 205 -26q82 -27 135 -71q55 -46 81 -99q28 -58 44 -111l-211 -49q-34 94 -89 130q-58 38 -165 38q-109 0 -160 -31q-48 -29 -59 -74q-12 -28 -8 -59q2 -33 23 -61q21 -27 69 -44l82 -26l209 -53q163 -43 235 -117q71 -73 76 -187v-27q0 -8 -2 -28 q-10 -84 -54 -144q-44 -61 -134 -100q89 -44 136 -108q48 -66 48 -170q0 -87 -34 -148q-35 -63 -93 -102q-61 -41 -141 -60q-85 -20 -176 -20q-109 0 -196 21q-91 22 -152 66q-64 46 -103 121q-38 74 -49 183zM299 653q0 -49 13 -78q14 -31 42 -52q31 -23 72 -37 q36 -12 104 -29q6 -1 17 -4.5t16 -5.5q18 -5 35 -5q21 -4 43 0q70 1 128 41q56 38 56 127q0 63 -37 109q-39 48 -139 76l-96 24q-12 3 -44 7q-19 3 -44 1q-73 -5 -119 -49q-47 -45 -47 -125z" />
<glyph unicode="&#xa8;" horiz-adv-x="825" d="M106 1253v230h224v-230h-224zM494 1253v230h223v-230h-223z" />
<glyph unicode="&#xa9;" horiz-adv-x="1587" d="M92 731q0 167 55 301q56 137 152 231q96 95 223 147q126 52 273 52q156 0 286 -53q127 -52 220 -149t142 -232q50 -136 50 -297q0 -174 -56 -308q-57 -136 -153 -229q-99 -96 -223 -144q-129 -50 -266 -50q-158 0 -290 53q-129 52 -222 151t-142 231t-49 296zM242 731 q0 -139 41 -251t114 -188q75 -78 175 -118q103 -41 223 -41q113 0 215 41q99 40 174 118q72 75 116 187q43 110 43 252q0 138 -41 246t-116 188q-74 78 -174 120q-101 42 -217 42q-133 0 -235 -46q-104 -47 -174 -126q-69 -78 -107 -189q-37 -108 -37 -235zM414 729 q0 95 26 169q27 76 77 132q49 54 123 87q73 32 167 32q153 0 234 -75t102 -197l-180 -31q-16 67 -51 112q-35 46 -111 46q-58 0 -99 -25q-37 -23 -61 -64q-23 -40 -32 -87q-9 -48 -9 -97q0 -57 10 -104q10 -48 33 -86q22 -37 62 -60q38 -22 94 -22q152 0 170 162h184 q-15 -146 -103 -228t-253 -82q-98 0 -171 32q-74 33 -120 87q-48 57 -70 132t-22 167z" />
<glyph unicode="&#xaa;" horiz-adv-x="870" d="M70 913q0 84 38 136q37 51 97 79q59 28 133 40q69 11 145 16l109 4v22q0 80 -38 116t-114 36q-83 0 -119 -31q-34 -30 -45 -74l-163 19q23 118 105 170q83 53 231 53q95 0 158 -24q62 -24 99 -67q35 -41 50 -100q14 -55 14 -126v-486h-174v97q-47 -56 -109 -86 q-64 -31 -147 -31q-124 0 -197 60t-73 177zM254 934q-2 -25 8 -47q12 -70 115 -70q99 0 158 49t59 146v53l-105 -6q-62 -5 -116 -16q-45 -9 -72 -24q-26 -14 -37 -37q-10 -20 -10 -48z" />
<glyph unicode="&#xab;" horiz-adv-x="1069" d="M80 528l272 457h232l-248 -455l248 -467h-236zM518 528l268 457h232l-246 -455l246 -467h-236z" />
<glyph unicode="&#xac;" d="M141 692v201h903v-549h-208v348h-695z" />
<glyph unicode="&#xad;" horiz-adv-x="798" d="M96 489v232h606v-232h-606z" />
<glyph unicode="&#xae;" horiz-adv-x="995" d="M66 1053q0 108 33 187q36 85 92 140q60 59 138 88q82 31 167 31q95 0 176 -32q80 -32 137 -90q58 -60 89 -140q32 -84 32 -184q0 -111 -36 -195q-36 -83 -96 -139q-60 -55 -140 -84q-81 -29 -162 -29q-102 0 -181 33q-80 33 -135 91t-85 140q-29 80 -29 183zM174 1053 q0 -169 87 -261t235 -92q142 0 233 91q90 90 90 262q0 167 -88 259q-89 93 -235 93q-148 0 -235 -93t-87 -259zM326 848v426h163q61 0 95 -11q35 -11 57 -30q20 -17 28 -42q7 -22 7 -46q0 -45 -16 -74q-14 -26 -54 -47l90 -176h-112l-74 153h-84v-153h-100zM426 1083h74 q46 0 60 18q13 17 13 42q0 22 -18 37q-17 14 -68 14h-61v-111z" />
<glyph unicode="&#xaf;" horiz-adv-x="825" d="M129 1264v182h565v-182h-565z" />
<glyph unicode="&#xb0;" horiz-adv-x="696" d="M57 1167q0 59 22 114q21 53 60 90q41 39 93 61q53 22 118 22q62 0 114 -21q50 -20 91 -61q39 -38 61 -91q23 -54 23 -114q0 -67 -24 -121q-25 -57 -63 -92q-38 -36 -92 -57q-50 -20 -110 -20q-70 0 -122 23q-56 25 -92 64q-37 40 -58 92t-21 111zM209 1167q0 -68 38 -108 q38 -39 103 -39q63 0 100 40t37 107q0 65 -37 105q-38 41 -100 41q-65 0 -103 -41t-38 -105z" />
<glyph unicode="&#xb1;" d="M137 0v111h938v-111h-938zM139 643v109h412v438h111v-438h411v-109h-411v-440h-111v440h-412z" />
<glyph unicode="&#xb2;" horiz-adv-x="843" d="M94 1178q11 47 33 98t59 87q40 38 99 62q63 25 145 25q140 0 217 -72q76 -72 76 -184q0 -101 -58 -183q-59 -83 -167 -173l-43 -33l-68 -55h346l-22 -156h-592v131l18 16q23 21 73 60q59 46 120 98l84 72q57 50 91 100q32 47 32 113q0 51 -31 82q-30 30 -84 30 q-64 0 -99 -31q-36 -32 -53 -110z" />
<glyph unicode="&#xb3;" horiz-adv-x="843" d="M109 852h161q8 -80 47 -116t111 -36q68 0 109 29t41 102q0 66 -46 91q-45 24 -104 24h-84v139h92q57 0 93 31q34 30 34 86q0 109 -135 109q-64 0 -101 -32q-36 -32 -53 -101l-161 24q7 50 30 93q23 44 61 79q39 36 94 56q54 20 134 20q152 0 225 -67q72 -66 72 -166 q0 -65 -31 -110t-80 -79q66 -28 99 -81t33 -113q0 -123 -75 -198t-241 -75q-92 0 -153 27q-64 28 -100 67t-55 94q-17 50 -17 103z" />
<glyph unicode="&#xb4;" horiz-adv-x="825" d="M156 1214l239 304h273l-293 -304h-219z" />
<glyph unicode="&#xb5;" horiz-adv-x="1183" d="M133 -397v1462h232v-659q0 -131 39 -186q40 -56 145 -56q27 0 57 5q27 4 53 19q30 15 53 33q31 24 52 49q26 31 40 66q15 38 15 84v645h234v-1065h-228v154q-119 -181 -295 -181q-44 0 -90 11q-42 10 -75 49v-430h-232z" />
<glyph unicode="&#xb6;" horiz-adv-x="1294" d="M37 1016q0 89 26 166q27 78 95 142q66 62 182 100t291 38h524v-1747h-225v1555h-209v-1555h-223v856q-127 7 -217 47q-89 39 -143 99t-78 136q-23 73 -23 163z" />
<glyph unicode="&#xb7;" horiz-adv-x="473" d="M113 621v284h247v-284h-247z" />
<glyph unicode="&#xb8;" horiz-adv-x="825" d="M207 -299l14 -2q33 -4 58 -6q30 -2 45 -2h30q92 0 92 63q0 33 -26 46q-29 15 -90 16h-70l74 196h137l-41 -110q101 -10 144 -58q42 -46 42 -108q0 -95 -74 -132q-76 -38 -196 -38q-18 0 -64 2q-30 1 -75 8v125z" />
<glyph unicode="&#xb9;" horiz-adv-x="843" d="M113 1264l272 153h176v-823h-186v643l-193 -102z" />
<glyph unicode="&#xba;" horiz-adv-x="870" d="M41 1083q0 94 28 173q28 80 79 132q52 54 124 82q73 29 162 29q184 0 288 -110q105 -111 105 -304q0 -103 -30 -183q-29 -76 -85 -131q-53 -52 -126 -79q-69 -26 -154 -26q-185 0 -288 109t-103 308zM231 1083q0 -121 48 -192q47 -70 155 -70q110 0 156 72q47 73 47 190 q0 119 -47 190q-46 70 -156 70q-108 0 -155 -72q-48 -74 -48 -188z" />
<glyph unicode="&#xbb;" horiz-adv-x="1075" d="M51 63l246 457l-246 465h236l266 -463l-270 -459h-232zM492 63l249 457l-249 465h237l266 -463l-270 -459h-233z" />
<glyph unicode="&#xbc;" horiz-adv-x="1892" d="M47 1264l272 153h177v-823h-187v643l-192 -102zM436 0l715 1415h227l-714 -1415h-228zM1116 180v113l406 532h161v-503h107l-21 -142h-86v-178h-165v178h-402zM1294 322h224v294z" />
<glyph unicode="&#xbd;" horiz-adv-x="1892" d="M47 1264l272 153h177v-823h-187v643l-192 -102zM381 0l715 1415h227l-715 -1415h-227zM1128 586q11 47 33 98q21 50 60 87q42 41 98 63q60 24 145 24q140 0 217 -72q76 -72 76 -184q0 -101 -58 -183q-59 -83 -167 -173l-43 -33l-68 -55h346l-22 -156h-592v131l18 17 q14 13 73 59t120 98l84 72q57 50 91 100q32 47 32 113q0 51 -31 82t-84 31q-62 0 -99 -32q-35 -31 -52 -110z" />
<glyph unicode="&#xbe;" horiz-adv-x="1892" d="M109 852h161q8 -80 47 -116t111 -36q68 0 109 29t41 102q0 66 -46 91q-45 24 -104 24h-84v139h92q57 0 93 31q34 30 34 86q0 109 -135 109q-64 0 -101 -32q-36 -32 -53 -101l-161 24q7 50 30 93q23 44 61 79q39 36 94 56q54 20 134 20q152 0 225 -67q72 -66 72 -166 q0 -65 -31 -110t-80 -79q66 -28 99 -81t33 -113q0 -123 -75 -198t-241 -75q-92 0 -153 27q-64 28 -100 67t-55 94q-17 50 -17 103zM532 0l715 1415h228l-715 -1415h-228zM1116 180v113l406 532h161v-503h107l-21 -142h-86v-178h-165v178h-402zM1294 322h224v294z" />
<glyph unicode="&#xbf;" horiz-adv-x="1017" d="M41 -45q0 64 12 112q12 46 35 87q21 36 51 71q25 29 64 68l71 69q49 49 84 104t35 126v31h230v-39q0 -88 -34 -147q-37 -64 -83 -113q-42 -44 -87 -88q-40 -39 -70 -76q-30 -38 -48 -79q-18 -42 -18 -99q-2 -98 53 -151q56 -54 156 -54q118 0 181 54q62 53 91 177 l213 -28l-2 -11q-18 -78 -53 -150q-35 -71 -92 -124q-60 -56 -140 -84q-87 -31 -201 -31q-213 0 -331 103q-117 102 -117 272zM389 782v283h240v-283h-240z" />
<glyph unicode="&#xc0;" horiz-adv-x="1404" d="M23 0l557 1462h245l557 -1462h-264l-137 373h-567l-135 -373h-256zM346 1868h279l249 -285h-223zM481 580h432l-217 602z" />
<glyph unicode="&#xc1;" horiz-adv-x="1404" d="M23 0l557 1462h245l557 -1462h-264l-137 373h-567l-135 -373h-256zM481 580h432l-217 602zM528 1583l252 285h277l-305 -285h-224z" />
<glyph unicode="&#xc2;" horiz-adv-x="1404" d="M23 0l557 1462h245l557 -1462h-264l-137 373h-567l-135 -373h-256zM342 1583l242 285h233l242 -285h-207l-152 154l-151 -154h-207zM481 580h432l-217 602z" />
<glyph unicode="&#xc3;" horiz-adv-x="1404" d="M23 0l557 1462h245l557 -1462h-264l-137 373h-567l-135 -373h-256zM315 1589q0 137 63 202q63 64 173 64q41 0 77 -15q30 -12 68 -35q37 -22 66 -35q33 -15 67 -15q89 0 89 94h167q0 -139 -62 -201q-63 -63 -171 -63q-42 0 -76 12q-28 10 -67 31l-54 31q-7 3 -40 17 q-17 7 -40 7q-50 0 -70 -23q-22 -25 -22 -71h-168zM481 580h432l-217 602z" />
<glyph unicode="&#xc4;" horiz-adv-x="1404" d="M23 0l557 1462h245l557 -1462h-264l-137 373h-567l-135 -373h-256zM387 1610v237h229v-237h-229zM481 580h432l-217 602zM784 1610v237h230v-237h-230z" />
<glyph unicode="&#xc5;" horiz-adv-x="1404" d="M23 0l542 1421q-28 16 -49 43q-22 28 -29 66q-16 29 -16 82q0 110 66 169q65 58 163 58q46 0 85 -14q44 -16 74 -43q31 -28 51 -71t20 -99q0 -66 -26 -113t-66 -74l544 -1425h-264l-137 373h-567l-135 -373h-256zM481 580h432l-217 602zM604 1612q0 -55 26 -79t70 -24 q97 0 97 103q0 54 -27 79q-26 25 -70 25q-96 0 -96 -104z" />
<glyph unicode="&#xc6;" horiz-adv-x="2127" d="M-2 0l870 1462h1164v-213h-680v-389h639v-215h-639v-432h719l-29 -213h-930v461h-573l-263 -461h-278zM659 670h453v579h-121z" />
<glyph unicode="&#xc7;" horiz-adv-x="1458" d="M106 729q0 177 49 324q48 143 136 242q90 100 211 152q122 52 270 52q136 0 238 -35q100 -34 171 -99q69 -63 112 -155q42 -91 63 -200l-244 -35q-16 72 -41 131q-24 57 -64 97q-41 41 -98 62t-137 21q-98 0 -174 -39q-75 -38 -128 -111q-51 -70 -79 -175 q-26 -98 -26 -230q0 -129 27 -231q27 -100 81 -175q54 -74 128 -111q76 -38 171 -38q86 0 147 23t101 63t64 99q23 56 34 133h262q-12 -107 -53 -203q-40 -94 -110 -165q-69 -71 -170 -113q-100 -42 -232 -48l-27 -74q62 -6 99 -22q39 -17 60 -39q23 -25 30 -50q8 -29 8 -59 q0 -96 -77 -137t-208 -41q-16 0 -62 2q-17 1 -79 9v137q55 -9 79 -10q3 0 26 -1.5t34 -1.5q57 0 80 17t23 45t-27 45q-26 16 -102 16h-60l62 168q-136 15 -242 75q-105 59 -178 158t-110 230q-38 135 -38 297z" />
<glyph unicode="&#xc8;" horiz-adv-x="1226" d="M156 0v1462h972v-213h-725v-389h684v-215h-684v-432h764l-28 -213h-983zM317 1868h279l250 -285h-223z" />
<glyph unicode="&#xc9;" horiz-adv-x="1226" d="M156 0v1462h972v-213h-725v-389h684v-215h-684v-432h764l-28 -213h-983zM459 1583l252 285h276l-305 -285h-223z" />
<glyph unicode="&#xca;" horiz-adv-x="1226" d="M156 0v1462h972v-213h-725v-389h684v-215h-684v-432h764l-28 -213h-983zM287 1583l241 285h234l242 -285h-207l-152 154l-151 -154h-207z" />
<glyph unicode="&#xcb;" horiz-adv-x="1226" d="M156 0v1462h972v-213h-725v-389h684v-215h-684v-432h764l-28 -213h-983zM332 1610v237h229v-237h-229zM729 1610v237h229v-237h-229z" />
<glyph unicode="&#xcc;" horiz-adv-x="557" d="M-72 1868h279l250 -285h-224zM156 0v1462h247v-1462h-247z" />
<glyph unicode="&#xcd;" horiz-adv-x="557" d="M109 1583l251 285h277l-305 -285h-223zM156 0v1462h247v-1462h-247z" />
<glyph unicode="&#xce;" horiz-adv-x="557" d="M-78 1583l242 285h233l242 -285h-207l-151 154l-152 -154h-207zM156 0v1462h247v-1462h-247z" />
<glyph unicode="&#xcf;" horiz-adv-x="557" d="M-33 1610v237h230v-237h-230zM156 0v1462h247v-1462h-247zM365 1610v237h229v-237h-229z" />
<glyph unicode="&#xd0;" horiz-adv-x="1517" d="M20 651v207h166v604h531q327 0 510 -182q184 -183 184 -541q0 -187 -54 -327q-54 -139 -152 -231q-97 -91 -234 -136t-303 -45h-482v651h-166zM434 211h240q253 0 366 140q115 142 115 386q0 120 -26 216q-26 97 -78 162q-53 67 -137 102q-81 34 -197 34h-283v-393h342 v-207h-342v-440z" />
<glyph unicode="&#xd1;" horiz-adv-x="1454" d="M156 0v1462h229l672 -1056v1056h241v-1462h-229l-674 1053v-1053h-239zM342 1589q0 139 62 202q63 64 174 64q40 0 76 -15q33 -14 69 -35q40 -24 65 -35q33 -15 68 -15q88 0 88 94h168q0 -139 -62 -201q-63 -63 -171 -63q-41 0 -76 12q-31 11 -68 31l-53 31q-7 3 -40 17 q-17 7 -40 7q-51 0 -71 -23q-21 -24 -21 -71h-168z" />
<glyph unicode="&#xd2;" horiz-adv-x="1581" d="M106 729q0 179 50 324q49 143 139 242q91 100 217 152t281 52q156 0 282 -52q127 -52 215 -151q89 -99 136 -240q49 -145 49 -323q0 -177 -48 -324q-47 -143 -135 -242q-90 -100 -214 -152q-125 -52 -285 -52q-159 0 -284 52q-127 53 -216 151q-90 99 -138 241 q-49 145 -49 322zM362 731q0 -257 108 -406t321 -149q211 0 319 149q109 150 109 406q0 126 -28 232q-26 99 -81 174q-51 70 -133 110q-79 39 -186 39t-187 -39q-81 -40 -134 -110q-54 -72 -81 -174t-27 -232zM467 1868h278l250 -285h-223z" />
<glyph unicode="&#xd3;" horiz-adv-x="1581" d="M106 729q0 179 50 324q49 143 139 242q91 100 217 152t281 52q156 0 282 -52q127 -52 215 -151q89 -99 136 -240q49 -145 49 -323q0 -177 -48 -324q-47 -143 -135 -242q-90 -100 -214 -152q-125 -52 -285 -52q-159 0 -284 52q-127 53 -216 151q-90 99 -138 241 q-49 145 -49 322zM362 731q0 -257 108 -406t321 -149q211 0 319 149q109 150 109 406q0 126 -28 232q-26 99 -81 174q-51 70 -133 110q-79 39 -186 39t-187 -39q-81 -40 -134 -110q-54 -72 -81 -174t-27 -232zM600 1583l252 285h276l-305 -285h-223z" />
<glyph unicode="&#xd4;" horiz-adv-x="1581" d="M106 729q0 179 50 324q49 143 139 242q91 100 217 152t281 52q156 0 282 -52q127 -52 215 -151q89 -99 136 -240q49 -145 49 -323q0 -177 -48 -324q-47 -143 -135 -242q-90 -100 -214 -152q-125 -52 -285 -52q-159 0 -284 52q-127 53 -216 151q-90 99 -138 241 q-49 145 -49 322zM362 731q0 -257 108 -406t321 -149q211 0 319 149q109 150 109 406q0 126 -28 232q-26 99 -81 174q-51 70 -133 110q-79 39 -186 39t-187 -39q-81 -40 -134 -110q-54 -72 -81 -174t-27 -232zM432 1583l242 285h233l242 -285h-207l-151 154l-152 -154h-207z " />
<glyph unicode="&#xd5;" horiz-adv-x="1581" d="M106 729q0 179 50 324q49 143 139 242q91 100 217 152t281 52q156 0 282 -52q127 -52 215 -151q89 -99 136 -240q49 -145 49 -323q0 -177 -48 -324q-47 -143 -135 -242q-90 -100 -214 -152q-125 -52 -285 -52q-159 0 -284 52q-127 53 -216 151q-90 99 -138 241 q-49 145 -49 322zM362 731q0 -257 108 -406t321 -149q211 0 319 149q109 150 109 406q0 126 -28 232q-26 99 -81 174q-51 70 -133 110q-79 39 -186 39t-187 -39q-81 -40 -134 -110q-54 -72 -81 -174t-27 -232zM406 1589q0 139 62 202q63 64 173 64q41 0 77 -15 q30 -12 68 -35q37 -22 66 -35q33 -15 68 -15q88 0 88 94h168q0 -138 -63 -201t-171 -63q-42 0 -76 12q-28 10 -67 31l-54 31q-15 7 -39 17q-17 7 -40 7q-51 0 -71 -23q-22 -25 -22 -71h-167z" />
<glyph unicode="&#xd6;" horiz-adv-x="1581" d="M106 729q0 179 50 324q49 143 139 242q91 100 217 152t281 52q156 0 282 -52q127 -52 215 -151q89 -99 136 -240q49 -145 49 -323q0 -177 -48 -324q-47 -143 -135 -242q-90 -100 -214 -152q-125 -52 -285 -52q-159 0 -284 52q-127 53 -216 151q-90 99 -138 241 q-49 145 -49 322zM362 731q0 -257 108 -406t321 -149q211 0 319 149q109 150 109 406q0 126 -28 232q-26 99 -81 174q-51 70 -133 110q-79 39 -186 39t-187 -39q-81 -40 -134 -110q-54 -72 -81 -174t-27 -232zM477 1610v237h230v-237h-230zM874 1610v237h230v-237h-230z" />
<glyph unicode="&#xd7;" d="M156 1004l141 143l309 -309l309 309l142 -143l-307 -310l301 -303l-144 -143l-301 303l-303 -303l-141 143l301 303z" />
<glyph unicode="&#xd8;" horiz-adv-x="1581" d="M106 729q0 181 50 326q49 142 139 241t217 151q126 52 281 52q100 0 185 -22q82 -21 163 -64l106 160l121 -80l-108 -166q102 -98 159 -251q56 -151 56 -343q0 -180 -49 -327q-47 -142 -137 -242q-88 -99 -215 -150q-126 -51 -281 -51q-107 0 -202 25q-89 23 -169 71 l-113 -170l-123 80l119 181q-199 199 -199 579zM362 731q0 -115 21 -207q22 -98 63 -162l570 861q-51 31 -105 47t-120 16q-109 0 -190 -39q-82 -39 -134 -111q-54 -74 -79 -175q-26 -104 -26 -230zM547 248q96 -72 244 -72q212 0 320 147t108 408q0 242 -97 389z" />
<glyph unicode="&#xd9;" horiz-adv-x="1409" d="M133 592v870h246v-876q0 -206 75 -308t253 -102q176 0 248 102q73 103 73 308v876h248v-876q0 -168 -41 -288q-40 -118 -117 -193q-75 -73 -180 -108q-103 -34 -233 -34q-280 0 -426 151t-146 478zM362 1868h279l250 -285h-223z" />
<glyph unicode="&#xda;" horiz-adv-x="1409" d="M133 592v870h246v-876q0 -206 75 -308t253 -102q176 0 248 102q73 103 73 308v876h248v-876q0 -168 -41 -288q-40 -118 -117 -193q-75 -73 -180 -108q-103 -34 -233 -34q-280 0 -426 151t-146 478zM530 1583l252 285h277l-305 -285h-224z" />
<glyph unicode="&#xdb;" horiz-adv-x="1409" d="M133 592v870h246v-876q0 -206 75 -308t253 -102q176 0 248 102q73 103 73 308v876h248v-876q0 -168 -41 -288q-40 -118 -117 -193q-75 -73 -180 -108q-103 -34 -233 -34q-280 0 -426 151t-146 478zM344 1583l242 285h233l242 -285h-207l-152 154l-151 -154h-207z" />
<glyph unicode="&#xdc;" horiz-adv-x="1409" d="M133 592v870h246v-876q0 -206 75 -308t253 -102q176 0 248 102q73 103 73 308v876h248v-876q0 -168 -41 -288q-40 -118 -117 -193q-75 -73 -180 -108q-103 -34 -233 -34q-280 0 -426 151t-146 478zM389 1610v237h229v-237h-229zM786 1610v237h230v-237h-230z" />
<glyph unicode="&#xdd;" horiz-adv-x="1300" d="M25 1462h276l352 -635l361 635h262l-498 -854v-608h-246v608zM481 1583l252 285h277l-305 -285h-224z" />
<glyph unicode="&#xde;" horiz-adv-x="1296" d="M156 0v1462h243v-262h263q164 0 271 -37q108 -38 170 -98q63 -62 87 -142q24 -81 24 -169q0 -103 -26 -185q-27 -86 -90 -149t-169 -101q-101 -36 -263 -36h-267v-283h-243zM399 489h260q92 0 155 19q61 18 95 52q35 34 48 81q14 48 14 107q0 58 -15 105q-15 48 -49 77 q-35 31 -96 47q-60 16 -154 16h-258v-504z" />
<glyph unicode="&#xdf;" horiz-adv-x="1208" d="M133 0v1042q0 105 33 186t92 137t142 85q84 29 182 29q207 0 325 -94q117 -93 117 -267q0 -109 -43 -183q-43 -75 -135 -126q135 -35 213 -133q78 -99 78 -264q0 -195 -105 -309t-309 -121q-30 -2 -64 0q-43 0 -96 8q-51 8 -88 22l35 176q19 -9 61 -17q36 -7 72 -7 q150 0 207 64t57 198q0 142 -84 199t-235 57h-80v182h51q116 0 177 50t61 182q0 88 -48 146t-161 58q-133 0 -182 -82q-50 -83 -50 -239v-979h-223z" />
<glyph unicode="&#xe0;" horiz-adv-x="1124" d="M66 293q0 111 49 179q50 70 128 108q80 39 177 54q95 14 196 19l158 9v45q0 120 -58 166q-59 47 -153 47q-109 0 -161 -37q-51 -37 -68 -107l-213 23q28 155 141 227q112 72 309 72q127 0 210 -33t132 -90q50 -57 69 -136q19 -77 19 -173v-666h-223v139 q-61 -73 -145 -119q-86 -47 -209 -47q-73 0 -141 20q-67 20 -114 58q-49 40 -76 100t-27 142zM254 1518h272l240 -304h-219zM299 301q0 -69 44 -108q43 -39 130 -39q154 0 227 77q74 79 74 211v62l-149 -6q-102 -6 -169 -23q-66 -17 -100 -42t-46 -59q-11 -32 -11 -73z" />
<glyph unicode="&#xe1;" horiz-adv-x="1124" d="M66 293q0 111 49 179q50 70 128 108q80 39 177 54q95 14 196 19l158 9v45q0 120 -58 166q-59 47 -153 47q-109 0 -161 -37q-51 -37 -68 -107l-213 23q28 155 141 227q112 72 309 72q127 0 210 -33t132 -90q50 -57 69 -136q19 -77 19 -173v-666h-223v139 q-61 -73 -145 -119q-86 -47 -209 -47q-73 0 -141 20q-67 20 -114 58q-49 40 -76 100t-27 142zM299 301q0 -69 44 -108q43 -39 130 -39q154 0 227 77q74 79 74 211v62l-149 -6q-102 -6 -169 -23q-66 -17 -100 -42t-46 -59q-11 -32 -11 -73zM393 1214l240 304h272l-293 -304 h-219z" />
<glyph unicode="&#xe2;" horiz-adv-x="1124" d="M66 293q0 111 49 179q50 70 128 108q80 39 177 54q95 14 196 19l158 9v45q0 120 -58 166q-59 47 -153 47q-109 0 -161 -37q-51 -37 -68 -107l-213 23q28 155 141 227q112 72 309 72q127 0 210 -33t132 -90q50 -57 69 -136q19 -77 19 -173v-666h-223v139 q-61 -73 -145 -119q-86 -47 -209 -47q-73 0 -141 20q-67 20 -114 58q-49 40 -76 100t-27 142zM201 1214l241 304h234l239 -304h-204l-152 175l-151 -175h-207zM299 301q0 -69 44 -108q43 -39 130 -39q154 0 227 77q74 79 74 211v62l-149 -6q-102 -6 -169 -23 q-66 -17 -100 -42t-46 -59q-11 -32 -11 -73z" />
<glyph unicode="&#xe3;" horiz-adv-x="1124" d="M66 293q0 111 49 179q50 70 128 108q80 39 177 54q95 14 196 19l158 9v45q0 120 -58 166q-59 47 -153 47q-109 0 -161 -37q-51 -37 -68 -107l-213 23q28 155 141 227q112 72 309 72q127 0 210 -33t132 -90q50 -57 69 -136q19 -77 19 -173v-666h-223v139 q-61 -73 -145 -119q-86 -47 -209 -47q-73 0 -141 20q-67 20 -114 58q-49 40 -76 100t-27 142zM184 1235q0 134 61 201q59 65 167 65q36 0 71 -15q23 -10 69 -34q60 -31 66 -34q33 -15 68 -15q86 0 86 92h162q0 -138 -61 -202q-59 -62 -164 -62q-39 0 -74 12q-36 13 -66 29 l-59 35q-20 10 -38 16t-38 6q-88 0 -88 -94h-162zM299 301q0 -69 44 -108q43 -39 130 -39q154 0 227 77q74 79 74 211v62l-149 -6q-102 -6 -169 -23q-66 -17 -100 -42t-46 -59q-11 -32 -11 -73z" />
<glyph unicode="&#xe4;" horiz-adv-x="1124" d="M66 293q0 111 49 179q50 70 128 108q80 39 177 54q95 14 196 19l158 9v45q0 120 -58 166q-59 47 -153 47q-109 0 -161 -37q-51 -37 -68 -107l-213 23q28 155 141 227q112 72 309 72q127 0 210 -33t132 -90q50 -57 69 -136q19 -77 19 -173v-666h-223v139 q-61 -73 -145 -119q-86 -47 -209 -47q-73 0 -141 20q-67 20 -114 58q-49 40 -76 100t-27 142zM254 1253v230h223v-230h-223zM299 301q0 -69 44 -108q43 -39 130 -39q154 0 227 77q74 79 74 211v62l-149 -6q-102 -6 -169 -23q-66 -17 -100 -42t-46 -59q-11 -32 -11 -73z M641 1253v230h223v-230h-223z" />
<glyph unicode="&#xe5;" horiz-adv-x="1124" d="M66 293q0 111 49 179q50 70 128 108q80 39 177 54q95 14 196 19l158 9v45q0 120 -58 166q-59 47 -153 47q-109 0 -161 -37q-51 -37 -68 -107l-213 23q28 155 141 227q112 72 309 72q127 0 210 -33t132 -90q50 -57 69 -136q19 -77 19 -173v-666h-223v139 q-61 -73 -145 -119q-86 -47 -209 -47q-73 0 -141 20q-67 20 -114 58q-49 40 -76 100t-27 142zM299 301q0 -69 44 -108q43 -39 130 -39q154 0 227 77q74 79 74 211v62l-149 -6q-102 -6 -169 -23q-66 -17 -100 -42t-46 -59q-11 -32 -11 -73zM336 1423q0 57 17 95q18 41 48 68 q29 26 72 42q38 14 86 14q93 0 158 -58t65 -161q0 -61 -19 -100q-20 -42 -51 -67t-72 -37q-44 -13 -81 -13q-93 0 -159 54q-64 52 -64 163zM465 1423q0 -100 94 -100q40 0 67 25q25 24 25 75q0 52 -24 76q-25 25 -68 25q-94 0 -94 -101z" />
<glyph unicode="&#xe6;" horiz-adv-x="1832" d="M66 293q0 112 49 180q51 72 127 108q79 38 173 53q90 14 189 19l158 9v45q0 123 -56 167q-58 46 -149 46q-164 0 -203 -107q-102 -6 -198 -18l-35 4q28 155 141 227q112 72 303 72q125 0 209 -41q83 -41 135 -139q71 98 162 139t195 41q120 0 210 -38q88 -37 147 -107 q59 -69 87 -163q29 -96 29 -212v-103h-752q4 -143 73 -234t206 -91q104 0 159 43q56 44 74 122h225q-30 -170 -142 -260q-110 -88 -316 -88q-133 0 -243 55q-109 54 -165 164q-33 -46 -65 -80q-37 -38 -86 -68q-46 -28 -114 -47q-65 -18 -144 -18q-172 0 -278 77 q-105 76 -105 243zM299 301q0 -72 44 -110q43 -37 126 -37q142 0 217 74q76 75 76 208v68l-150 -6q-99 -6 -163 -23q-61 -16 -95 -41q-32 -23 -44 -58q-11 -32 -11 -75zM991 637h520q0 131 -60 207t-189 76t-195 -78q-65 -77 -76 -205z" />
<glyph unicode="&#xe7;" horiz-adv-x="1155" d="M96 528q0 126 35 233q34 104 101 180q66 75 163 116t219 41q108 0 187 -29q77 -28 130 -78t82 -114q30 -66 42 -142l-232 -35q-17 92 -62 150q-46 59 -155 59q-79 0 -130 -32q-53 -33 -83 -86q-31 -54 -43 -120t-12 -136q0 -84 13 -150q14 -71 45 -120q32 -50 83 -80 q49 -29 125 -29q108 0 161 56q55 58 71 161h235q-23 -186 -129 -291q-107 -106 -311 -113l-23 -67q99 -10 138 -52q40 -43 47 -96v-30q-6 -92 -85 -125q-80 -33 -206 -33q-28 0 -55 3q-56 6 -62 7v125l12 -2q8 -1 22 -2.5t21 -1.5q8 -1 21 -2.5t18 -1.5q67 0 84 24 q32 2 47 13.5t13 33.5q-5 29 -33 41q-31 13 -94 13h-60l60 159q-207 33 -303 179q-97 147 -97 374z" />
<glyph unicode="&#xe8;" horiz-adv-x="1187" d="M96 526q0 136 38 244q37 106 107 179q72 75 163 111q96 38 210 38q122 0 213 -38q89 -37 150 -107q59 -68 88 -163q29 -96 29 -212v-103h-764q5 -146 73 -235q69 -90 211 -90q111 0 166 43q56 44 74 122h225q-28 -165 -141 -257q-112 -91 -324 -91q-254 0 -386 147 t-132 412zM287 1518h272l240 -304h-219zM334 637h532q0 131 -61 207t-197 76q-128 0 -196 -77q-67 -76 -78 -206z" />
<glyph unicode="&#xe9;" horiz-adv-x="1187" d="M96 526q0 136 38 244q37 106 107 179q72 75 163 111q96 38 210 38q122 0 213 -38q89 -37 150 -107q59 -68 88 -163q29 -96 29 -212v-103h-764q5 -146 73 -235q69 -90 211 -90q111 0 166 43q56 44 74 122h225q-28 -165 -141 -257q-112 -91 -324 -91q-254 0 -386 147 t-132 412zM334 637h532q0 131 -61 207t-197 76q-128 0 -196 -77q-67 -76 -78 -206zM432 1214l240 304h272l-293 -304h-219z" />
<glyph unicode="&#xea;" horiz-adv-x="1187" d="M96 526q0 136 38 244q37 106 107 179q72 75 163 111q96 38 210 38q122 0 213 -38q89 -37 150 -107q59 -68 88 -163q29 -96 29 -212v-103h-764q5 -146 73 -235q69 -90 211 -90q111 0 166 43q56 44 74 122h225q-28 -165 -141 -257q-112 -91 -324 -91q-254 0 -386 147 t-132 412zM250 1214l242 304h233l240 -304h-205l-152 175l-151 -175h-207zM334 637h532q0 131 -61 207t-197 76q-128 0 -196 -77q-67 -76 -78 -206z" />
<glyph unicode="&#xeb;" horiz-adv-x="1187" d="M96 526q0 136 38 244q37 106 107 179q72 75 163 111q96 38 210 38q122 0 213 -38q89 -37 150 -107q59 -68 88 -163q29 -96 29 -212v-103h-764q5 -146 73 -235q69 -90 211 -90q111 0 166 43q56 44 74 122h225q-28 -165 -141 -257q-112 -91 -324 -91q-254 0 -386 147 t-132 412zM303 1253v230h223v-230h-223zM334 637h532q0 131 -61 207t-197 76q-128 0 -196 -77q-67 -76 -78 -206zM690 1253v230h223v-230h-223z" />
<glyph unicode="&#xec;" horiz-adv-x="503" d="M-111 1518h273l239 -304h-219zM135 0v1065h234v-1065h-234z" />
<glyph unicode="&#xed;" horiz-adv-x="503" d="M111 1214l239 304h273l-293 -304h-219zM135 0v1065h234v-1065h-234z" />
<glyph unicode="&#xee;" horiz-adv-x="503" d="M-106 1214l241 304h234l239 -304h-205l-151 175l-152 -175h-206zM135 0v1065h234v-1065h-234z" />
<glyph unicode="&#xef;" horiz-adv-x="503" d="M-53 1253v230h223v-230h-223zM135 0v1065h234v-1065h-234zM334 1253v230h223v-230h-223z" />
<glyph unicode="&#xf0;" horiz-adv-x="1247" d="M96 485q0 119 39 215t105 165t154 106q87 37 192 37q107 0 185 -35q75 -34 134 -105q-27 126 -91 219q-64 94 -191 154l-152 -151l-96 100l102 100q-49 16 -99 23q-52 7 -110 12l35 180q96 -11 169 -25q69 -13 155 -40l127 125l94 -99l-86 -86q193 -105 290 -300 q97 -194 97 -505q0 -153 -41 -268q-40 -112 -112 -189q-71 -75 -167 -113q-97 -38 -208 -38q-124 0 -223 38q-97 37 -165 107q-68 69 -102 163q-35 96 -35 210zM338 487q0 -147 73 -240q72 -91 212 -91q137 0 211 92q73 91 73 246v12q0 92 -24 152t-67 97q-40 34 -95 50 q-49 14 -111 14q-127 0 -199 -92q-73 -93 -73 -240z" />
<glyph unicode="&#xf1;" horiz-adv-x="1189" d="M133 0v1065h225v-156q72 99 161 144t192 45q356 0 356 -393v-705h-233v668q0 127 -48 181q-46 52 -139 52q-61 0 -113 -21t-90 -59q-37 -37 -58 -85t-21 -101v-635h-232zM225 1235q0 134 61 201q59 65 167 65q36 0 71 -15q23 -10 69 -34q60 -31 66 -34q33 -15 68 -15 q86 0 86 92h162q0 -138 -61 -202q-59 -62 -164 -62q-40 0 -74 12q-36 13 -66 29l-59 35q-20 10 -38 16t-38 6q-88 0 -88 -94h-162z" />
<glyph unicode="&#xf2;" horiz-adv-x="1247" d="M96 532q0 127 36 232q35 103 104 178q70 76 165 115q100 41 224 41q126 0 225 -42q98 -42 165 -116q65 -73 100 -177q34 -102 34 -226q0 -140 -39 -245q-39 -106 -110 -178q-72 -73 -166 -110q-95 -37 -213 -37q-251 0 -388 148t-137 417zM309 1518h273l239 -304h-219z M338 535q0 -175 66 -277t219 -102q148 0 216 101t68 278q0 175 -68 274q-69 100 -216 100q-148 0 -216 -101q-69 -102 -69 -273z" />
<glyph unicode="&#xf3;" horiz-adv-x="1247" d="M96 532q0 127 36 232q35 103 104 178q70 76 165 115q100 41 224 41q126 0 225 -42q98 -42 165 -116q65 -73 100 -177q34 -102 34 -226q0 -140 -39 -245q-39 -106 -110 -178q-72 -73 -166 -110q-95 -37 -213 -37q-251 0 -388 148t-137 417zM338 535q0 -175 66 -277 t219 -102q148 0 216 101t68 278q0 175 -68 274q-69 100 -216 100q-148 0 -216 -101q-69 -102 -69 -273zM449 1214l239 304h273l-293 -304h-219z" />
<glyph unicode="&#xf4;" horiz-adv-x="1247" d="M96 532q0 127 36 232q35 103 104 178q70 76 165 115q100 41 224 41q126 0 225 -42q98 -42 165 -116q65 -73 100 -177q34 -102 34 -226q0 -140 -39 -245q-39 -106 -110 -178q-72 -73 -166 -110q-95 -37 -213 -37q-251 0 -388 148t-137 417zM264 1214l242 304h233l240 -304 h-205l-151 175l-152 -175h-207zM338 535q0 -175 66 -277t219 -102q148 0 216 101t68 278q0 175 -68 274q-69 100 -216 100q-148 0 -216 -101q-69 -102 -69 -273z" />
<glyph unicode="&#xf5;" horiz-adv-x="1247" d="M96 532q0 127 36 232q35 103 104 178q70 76 165 115q100 41 224 41q126 0 225 -42q98 -42 165 -116q65 -73 100 -177q34 -102 34 -226q0 -140 -39 -245q-39 -106 -110 -178q-72 -73 -166 -110q-95 -37 -213 -37q-251 0 -388 148t-137 417zM248 1235q0 135 60 201 q59 65 167 65q37 0 72 -15q17 -7 68 -34q53 -28 67 -34q33 -15 68 -15q86 0 86 92h161q0 -139 -60 -202q-59 -62 -165 -62q-40 0 -74 12q-33 12 -65 29l-60 35q-22 11 -37 16q-18 6 -38 6q-88 0 -88 -94h-162zM338 535q0 -175 66 -277t219 -102q148 0 216 101t68 278 q0 175 -68 274q-69 100 -216 100q-148 0 -216 -101q-69 -102 -69 -273z" />
<glyph unicode="&#xf6;" horiz-adv-x="1247" d="M96 532q0 127 36 232q35 103 104 178q70 76 165 115q100 41 224 41q126 0 225 -42q98 -42 165 -116q65 -73 100 -177q34 -102 34 -226q0 -140 -39 -245q-39 -106 -110 -178q-72 -73 -166 -110q-95 -37 -213 -37q-251 0 -388 148t-137 417zM317 1253v230h224v-230h-224z M338 535q0 -175 66 -277t219 -102q148 0 216 101t68 278q0 175 -68 274q-69 100 -216 100q-148 0 -216 -101q-69 -102 -69 -273zM705 1253v230h223v-230h-223z" />
<glyph unicode="&#xf7;" d="M160 596v203h893v-203h-893zM494 190v246h221v-246h-221zM494 948v246h221v-246h-221z" />
<glyph unicode="&#xf8;" horiz-adv-x="1247" d="M96 532q0 130 37 234t105 178t165 114q98 40 222 40q134 0 258 -58l88 131l114 -77l-90 -133q73 -73 114 -182q40 -107 40 -242t-39 -242q-39 -106 -109 -179q-72 -75 -166 -111q-99 -38 -214 -38q-75 0 -139 15q-70 16 -122 41l-96 -146l-114 78l98 145 q-152 147 -152 432zM338 535q0 -73 10 -127q11 -60 37 -105l383 569q-28 15 -66 27q-33 10 -79 10q-150 0 -217 -101q-68 -103 -68 -273zM477 190q26 -15 64 -25q35 -9 82 -9q147 0 216 102q68 101 68 277q0 67 -11 122q-12 62 -34 105z" />
<glyph unicode="&#xf9;" horiz-adv-x="1175" d="M125 358v707h231v-670q0 -132 44 -182q43 -49 135 -49q49 0 99 18q47 17 89 54q40 35 63 83q25 52 25 111v635h233v-1065h-227v156q-73 -98 -160 -144q-85 -45 -184 -45q-186 0 -267 96t-81 295zM264 1518h273l239 -304h-219z" />
<glyph unicode="&#xfa;" horiz-adv-x="1175" d="M125 358v707h231v-670q0 -132 44 -182q43 -49 135 -49q49 0 99 18q47 17 89 54q40 35 63 83q25 52 25 111v635h233v-1065h-227v156q-73 -98 -160 -144q-85 -45 -184 -45q-186 0 -267 96t-81 295zM410 1214l239 304h273l-293 -304h-219z" />
<glyph unicode="&#xfb;" horiz-adv-x="1175" d="M125 358v707h231v-670q0 -132 44 -182q43 -49 135 -49q49 0 99 18q47 17 89 54q40 35 63 83q25 52 25 111v635h233v-1065h-227v156q-73 -98 -160 -144q-85 -45 -184 -45q-186 0 -267 96t-81 295zM229 1214l242 304h234l239 -304h-205l-151 175l-152 -175h-207z" />
<glyph unicode="&#xfc;" horiz-adv-x="1175" d="M125 358v707h231v-670q0 -132 44 -182q43 -49 135 -49q49 0 99 18q47 17 89 54q40 35 63 83q25 52 25 111v635h233v-1065h-227v156q-73 -98 -160 -144q-85 -45 -184 -45q-186 0 -267 96t-81 295zM281 1253v230h223v-230h-223zM668 1253v230h223v-230h-223z" />
<glyph unicode="&#xfd;" horiz-adv-x="1116" d="M14 1065h271l293 -768l268 768h254l-424 -1075q-39 -99 -70 -166q-32 -69 -74 -121q-41 -50 -97 -75t-138 -25q-56 0 -98 7q-53 9 -97 23l43 179q54 -19 117 -19q62 0 96 30q37 33 66 111l39 103zM377 1214l239 304h273l-293 -304h-219z" />
<glyph unicode="&#xfe;" horiz-adv-x="1249" d="M133 -397v1859h232v-536q64 85 148 128q86 44 192 44q113 0 198 -41q82 -40 139 -115q56 -75 83 -177q28 -107 28 -228q0 -132 -33 -237q-34 -107 -94 -179q-62 -73 -147 -114q-84 -40 -193 -40q-92 0 -173 33t-148 121v-518h-232zM362 498q1 -101 26 -168 q24 -65 62 -105q36 -38 87 -53q46 -14 102 -14q59 0 106 20t86 65q37 43 58 115q20 69 20 177q0 101 -21 171q-20 67 -57 114q-35 45 -82 65q-46 20 -100 20q-76 0 -130 -24t-89 -70q-34 -45 -51 -108q-17 -65 -17 -138v-51v-16z" />
<glyph unicode="&#xff;" horiz-adv-x="1116" d="M14 1065h271l293 -768l268 768h254l-424 -1075q-39 -99 -70 -166q-32 -69 -74 -121q-41 -50 -97 -75t-138 -25q-56 0 -98 7q-53 9 -97 23l43 179q54 -19 117 -19q62 0 96 30q37 33 66 111l39 103zM254 1253v230h223v-230h-223zM641 1253v230h223v-230h-223z" />
<glyph unicode="&#x152;" horiz-adv-x="2189" d="M106 729q0 170 47 314t131 244q85 102 203 157q117 55 267 55q146 0 245 -54q97 -53 172 -157v174h920v-213h-680v-389h639v-215h-639v-432h719l-29 -213h-930v176q-73 -104 -170 -158q-98 -55 -247 -55q-148 0 -265 52q-116 51 -203 152q-85 99 -132 242 q-48 147 -48 320zM365 731q0 -261 103 -407q104 -148 300 -148q104 0 181 39q76 39 126 113q49 72 73 179q23 101 23 238q-1 122 -26 223q-23 97 -75 170q-49 70 -126 109q-76 39 -176 39q-98 0 -174 -40q-77 -41 -127 -111q-52 -73 -77 -176q-25 -101 -25 -228z" />
<glyph unicode="&#x153;" horiz-adv-x="1974" d="M96 532q0 130 37 234t105 178t163 114t217 40q142 0 237 -59q96 -60 157 -169q66 111 163 169q98 59 232 59q118 0 209 -38q87 -36 148 -108q57 -67 88 -165q30 -94 30 -209v-103h-752q1 -120 53 -200q49 -76 154 -97q65 -15 117 2q51 17 86 68q100 0 167 19 q68 19 124 48h37q-30 -170 -144 -260q-112 -88 -317 -88q-149 0 -244 59q-93 58 -155 169q-66 -110 -159 -169q-94 -59 -235 -59q-245 0 -382 148q-136 146 -136 417zM338 535q0 -178 65 -278q65 -101 213 -101q144 0 211 102q68 103 68 277q0 172 -67 274q-66 100 -212 100 q-147 0 -212 -101q-66 -102 -66 -273zM1133 637h522q0 130 -62 207q-61 76 -190 76q-128 0 -194 -78q-65 -77 -76 -205z" />
<glyph unicode="&#x178;" horiz-adv-x="1300" d="M25 1462h276l352 -635l361 635h262l-498 -854v-608h-246v608zM330 1610v237h229v-237h-229zM727 1610v237h229v-237h-229z" />
<glyph unicode="&#x2c6;" horiz-adv-x="825" d="M53 1214l242 304h233l240 -304h-205l-151 175l-152 -175h-207z" />
<glyph unicode="&#x2dc;" horiz-adv-x="825" d="M37 1235q0 135 60 201q59 65 167 65q38 0 72 -15q17 -7 68 -34q53 -28 67 -34q33 -15 68 -15q86 0 86 92h161q0 -139 -60 -202q-59 -62 -165 -62q-39 0 -74 12q-33 12 -65 29l-60 35q-22 11 -37 16q-18 6 -38 6q-88 0 -88 -94h-162z" />
<glyph unicode="&#x2000;" horiz-adv-x="934" />
<glyph unicode="&#x2001;" horiz-adv-x="1868" />
<glyph unicode="&#x2002;" horiz-adv-x="934" />
<glyph unicode="&#x2003;" horiz-adv-x="1868" />
<glyph unicode="&#x2004;" horiz-adv-x="622" />
<glyph unicode="&#x2005;" horiz-adv-x="467" />
<glyph unicode="&#x2006;" horiz-adv-x="311" />
<glyph unicode="&#x2007;" horiz-adv-x="311" />
<glyph unicode="&#x2008;" horiz-adv-x="233" />
<glyph unicode="&#x2009;" horiz-adv-x="373" />
<glyph unicode="&#x200a;" horiz-adv-x="103" />
<glyph unicode="&#x2010;" horiz-adv-x="798" d="M96 489v232h606v-232h-606z" />
<glyph unicode="&#x2011;" horiz-adv-x="798" d="M96 489v232h606v-232h-606z" />
<glyph unicode="&#x2012;" horiz-adv-x="798" d="M96 489v232h606v-232h-606z" />
<glyph unicode="&#x2013;" horiz-adv-x="1024" d="M0 494v223h1024v-223h-1024z" />
<glyph unicode="&#x2014;" horiz-adv-x="2048" d="M0 494v223h2048v-223h-2048z" />
<glyph unicode="&#x2018;" horiz-adv-x="458" d="M90 981l119 481h180l-61 -481h-238z" />
<glyph unicode="&#x2019;" horiz-adv-x="458" d="M72 981l61 481h236l-119 -481h-178z" />
<glyph unicode="&#x201a;" horiz-adv-x="458" d="M74 -195l65 482h234l-117 -482h-182z" />
<glyph unicode="&#x201c;" horiz-adv-x="794" d="M90 981l119 481h168l-62 -481h-225zM438 981l119 481h168l-61 -481h-226z" />
<glyph unicode="&#x201d;" horiz-adv-x="794" d="M72 981l61 481h225l-118 -481h-168zM418 981l61 481h226l-119 -481h-168z" />
<glyph unicode="&#x201e;" horiz-adv-x="794" d="M74 -197l65 482h221l-116 -482h-170zM420 -197l63 482h224l-117 -482h-170z" />
<glyph unicode="&#x2022;" horiz-adv-x="780" d="M96 745q0 62 22 117q22 54 61 92q41 40 93 62q51 22 119 22q65 0 118 -22q54 -22 93 -63q41 -42 61 -93q21 -52 21 -115q0 -69 -25 -127q-23 -53 -65 -92q-38 -35 -94 -56q-51 -19 -109 -19q-67 0 -119 21t-93 60q-39 38 -61 94q-22 57 -22 119z" />
<glyph unicode="&#x2026;" horiz-adv-x="1875" d="M113 0v285h247v-285h-247zM1010 0v285h247v-285h-247zM1321 0v285h248v-285h-248z" />
<glyph unicode="&#x202f;" horiz-adv-x="373" />
<glyph unicode="&#x2039;" horiz-adv-x="638" d="M80 528l272 457h236l-246 -455l246 -467h-240z" />
<glyph unicode="&#x203a;" horiz-adv-x="638" d="M51 63l246 457l-246 465h242l266 -463l-270 -459h-238z" />
<glyph unicode="&#x205f;" horiz-adv-x="467" />
<glyph unicode="&#x20ac;" d="M35 465l26 160h109q0 22 -1 34t-1 37q0 30 1 44t1 42h-135l26 160h127q18 105 59 200q42 97 104 163q63 67 154 109q87 40 206 40q218 0 322 -100q106 -102 136 -299l-208 -35q-28 127 -85 179q-56 52 -174 52q-62 0 -107 -23q-47 -24 -81 -66q-35 -43 -57 -98 q-24 -60 -35 -122h403l-28 -160h-394q-2 -28 -2 -40v-42v-38q0 -13 2 -37h373l-28 -160h-326q23 -136 90 -218q68 -83 188 -83q136 0 194 62q58 63 75 192h219q-23 -227 -139 -340q-118 -115 -353 -115q-223 0 -349 130q-125 130 -163 372h-149z" />
<glyph unicode="&#x2122;" horiz-adv-x="1871" d="M37 1313v149h692v-149h-262v-670h-168v670h-262zM836 643v819h206l242 -626l246 626h201v-819h-154v565l-223 -565h-142l-223 563v-563h-153z" />
<glyph unicode="&#x25fc;" horiz-adv-x="1064" d="M0 0v1065h1065v-1065h-1065z" />
</font>
</defs>
</svg>
