<?xml version="1.0" standalone="no"?>
<!DOCTYPE svg PUBLIC "-//W3C//DTD SVG 1.1//EN" "http://www.w3.org/Graphics/SVG/1.1/DTD/svg11.dtd" >
<svg xmlns="http://www.w3.org/2000/svg" xmlns:xlink="http://www.w3.org/1999/xlink" version="1.1">
<metadata></metadata>
<defs>
<font id="buenos_aires_trialblack" horiz-adv-x="854" >
<font-face units-per-em="2048" ascent="1550" descent="-498" />
<missing-glyph horiz-adv-x="491" />
<glyph horiz-adv-x="0" />
<glyph horiz-adv-x="682" />
<glyph unicode="&#xd;" horiz-adv-x="464" />
<glyph unicode=" "  horiz-adv-x="491" />
<glyph unicode="&#x09;" horiz-adv-x="491" />
<glyph unicode="&#xa0;" horiz-adv-x="491" />
<glyph unicode="," horiz-adv-x="610" d="M20 -270l209 671l340 -129l-266 -651z" />
<glyph unicode="-" d="M92 451v303h670v-303h-670z" />
<glyph unicode="." horiz-adv-x="526" d="M51 188q0 85 59.5 143t153.5 58q92 0 151.5 -58t59.5 -143t-59.5 -142.5t-151.5 -57.5q-94 0 -153.5 57.5t-59.5 142.5z" />
<glyph unicode="0" horiz-adv-x="1290" d="M82 684v53q0 337 148 517t415 180t415 -180t148 -517v-53q0 -337 -148 -516.5t-415 -179.5t-415 179.5t-148 516.5zM428 684q0 -206 53 -293.5t164 -87.5t164 87.5t53 293.5v53q0 206 -53 293.5t-164 87.5t-164 -87.5t-53 -293.5v-53z" />
<glyph unicode="1" horiz-adv-x="804" d="M82 1094v319h539v-1413h-345v1094h-194z" />
<glyph unicode="2" horiz-adv-x="1196" d="M61 887q0 133 46.5 240t124.5 172.5t173 100t197 34.5q209 0 346 -125.5t137 -323.5q0 -56 -11.5 -107.5t-34.5 -95t-46.5 -78t-58.5 -68.5t-58 -54.5t-57 -48.5q-11 -9 -16 -13l-242 -201h574v-319h-1022v299l362 322q8 7 51 44t55.5 48.5t46.5 44.5t47 51.5t32.5 47.5 t26.5 55t7 53q0 67 -46 108t-113 41q-81 0 -144 -63t-63 -177z" />
<glyph unicode="3" horiz-adv-x="1148" d="M41 328l299 151q25 -87 86 -136.5t147 -49.5q70 0 113 33.5t43 95.5q0 82 -68 117.5t-204 35.5h-92v267q159 0 236 36.5t77 118.5q0 55 -39.5 87t-103.5 32q-74 0 -140.5 -43t-97.5 -110l-248 153q60 147 197.5 232.5t312.5 85.5q197 0 329 -101t132 -254 q0 -109 -67.5 -199.5t-174.5 -127.5q145 -36 217 -124.5t72 -213.5q0 -123 -68 -221t-184 -151.5t-258 -53.5q-183 0 -319 91t-197 249z" />
<glyph unicode="4" horiz-adv-x="1253" d="M41 281v299l608 833h342v-813h221v-319h-221v-281h-344v281h-606zM371 600h276v385z" />
<glyph unicode="5" horiz-adv-x="1224" d="M82 334l307 141q23 -84 87.5 -128t139.5 -44q76 0 128.5 45.5t52.5 128.5q0 87 -55 132.5t-132 45.5q-59 0 -110 -26.5t-78 -75.5h-264v860h868v-319h-577v-203q103 67 245 67q144 0 247 -62t152.5 -165t49.5 -235q0 -121 -43 -219t-116.5 -160t-168 -95.5t-201.5 -33.5 q-117 0 -223.5 38.5t-190 118t-118.5 189.5z" />
<glyph unicode="6" horiz-adv-x="1267" d="M82 651q0 128 31.5 242t100 214t169 172t246 113.5t323.5 41.5l13 -316q-75 0 -138.5 -7.5t-129 -28t-114.5 -53.5t-88.5 -88.5t-58.5 -129.5q64 71 147.5 107t172.5 36q82 0 159 -31.5t137.5 -88t97 -145.5t36.5 -195q0 -224 -148.5 -365t-380.5 -141q-179 0 -311 89 t-198 238t-66 336zM471 481q0 -80 50.5 -129t133.5 -49t133 48t50 128q0 86 -54 131t-129 45q-76 0 -130 -45.5t-54 -128.5z" />
<glyph unicode="7" horiz-adv-x="1165" d="M41 1069v344h1063v-323l-535 -1090h-376l546 1069h-698z" />
<glyph unicode="8" horiz-adv-x="1230" d="M82 412q0 118 64.5 209t189.5 131q-203 98 -203 303q0 174 139 276.5t357 102.5q212 0 343.5 -100.5t131.5 -276.5q0 -96 -54 -178.5t-157 -130.5q256 -89 256 -336q0 -186 -148.5 -305t-382.5 -119q-238 0 -387 118t-149 306zM424 434q0 -69 55 -105t150 -36 q81 0 129.5 33t48.5 92q0 55 -42 93.5t-130 63.5l-72 21q-60 -18 -99.5 -62t-39.5 -100zM473 1016q0 -39 31 -69.5t90 -49.5l59 -18q50 20 80.5 58.5t30.5 78.5q0 49 -37.5 80.5t-103.5 31.5t-108 -30.5t-42 -81.5z" />
<glyph unicode="9" horiz-adv-x="1267" d="M82 928q0 224 148 365t380 141q178 0 310.5 -89t199 -238.5t66.5 -336.5q0 -128 -31.5 -242t-100.5 -213.5t-169.5 -171.5t-246 -113.5t-323.5 -41.5l-12 315q75 0 138.5 7.5t128.5 28t114 53.5t88.5 88.5t58.5 129.5q-128 -143 -319 -143q-82 0 -159 31.5t-137.5 88.5 t-97 146t-36.5 195zM430 942q0 -86 53.5 -131t128.5 -45q76 0 130.5 45.5t54.5 128.5q0 80 -51 129t-134 49t-132.5 -48t-49.5 -128z" />
<glyph unicode="A" horiz-adv-x="1490" d="M20 0l560 1434h331l559 -1434h-370l-96 266h-517l-96 -266h-371zM606 590h279l-140 383z" />
<glyph unicode="B" horiz-adv-x="1284" d="M143 0v1434h598q94 0 173 -31t129 -81.5t78 -114t28 -130.5q0 -102 -59 -183.5t-175 -115.5q141 -37 214 -127.5t73 -204.5q0 -81 -34.5 -160.5t-96 -143t-156.5 -103t-206 -39.5h-566zM487 319h205q77 0 120.5 44.5t43.5 103.5q0 56 -41.5 100.5t-114.5 44.5h-213v-293z M487 870h177q63 0 100 40t37 89q0 50 -34 82.5t-99 32.5h-181v-244z" />
<glyph unicode="C" horiz-adv-x="1538" d="M82 694q0 116 30 227t92 210t149.5 173.5t211.5 118t269 43.5q417 0 618 -346l-276 -190q-56 99 -148 152t-209 53q-94 0 -169.5 -35t-122 -93.5t-71 -131.5t-24.5 -152q0 -80 26.5 -155t75 -135t125.5 -96t170 -36q129 0 226.5 72t144.5 202l297 -124 q-91 -229 -272 -356.5t-432 -127.5q-139 0 -256.5 40.5t-200 110t-141 162.5t-86 197.5t-27.5 216.5z" />
<glyph unicode="D" horiz-adv-x="1468" d="M143 0v1434h525q174 0 314 -59.5t226.5 -159t132 -223t45.5 -259.5q0 -110 -30 -215t-92 -199t-150 -165t-212.5 -112.5t-270.5 -41.5h-488zM492 332h163q93 0 167.5 32.5t120.5 87.5t70.5 124t24.5 145q0 74 -23.5 142t-68.5 121.5t-116.5 85.5t-159.5 32h-178v-770z " />
<glyph unicode="E" horiz-adv-x="1198" d="M143 0v1434h936v-332h-587v-217h497v-332h-497v-221h604v-332h-953z" />
<glyph unicode="F" horiz-adv-x="1161" d="M143 0v1434h936v-332h-587v-242h497v-332h-497v-528h-349z" />
<glyph unicode="G" horiz-adv-x="1544" d="M82 694q0 116 30 227t92 210t149.5 173.5t211.5 118t269 43.5q417 0 618 -346l-276 -190q-56 99 -148 152t-209 53q-94 0 -169.5 -34.5t-122 -94t-71 -134.5t-24.5 -159q0 -190 112 -308t287 -118q113 0 222 45v170h-320v323h668v-628q-113 -105 -266.5 -167.5 t-331.5 -62.5q-140 0 -259 40.5t-203 110t-143 162t-87.5 197.5t-28.5 217z" />
<glyph unicode="H" horiz-adv-x="1499" d="M143 0v1434h349v-549h516v549h348v-1434h-348v553h-516v-553h-349z" />
<glyph unicode="I" horiz-adv-x="634" d="M143 0v1434h349v-1434h-349z" />
<glyph unicode="J" horiz-adv-x="1056" d="M20 375l332 63q3 -69 37 -104t84 -35q49 0 81 33.5t32 91.5v1010h348v-998q0 -117 -38 -208.5t-102.5 -147.5t-144 -84.5t-168.5 -28.5q-85 0 -164.5 27t-144 77.5t-105.5 129t-47 174.5z" />
<glyph unicode="K" horiz-adv-x="1556" d="M143 0v1434h349v-582l512 582h469l-635 -680l698 -754h-477l-567 625v-625h-349z" />
<glyph unicode="L" horiz-adv-x="1073" d="M143 0v1434h349v-1102h540v-332h-889z" />
<glyph unicode="M" horiz-adv-x="1765" d="M143 0v1434h432l308 -770l307 770h432v-1434h-348v809l-227 -537h-328l-227 537v-809h-349z" />
<glyph unicode="N" horiz-adv-x="1568" d="M143 0v1434h369l565 -873v873h348v-1434h-368l-565 827v-827h-349z" />
<glyph unicode="O" horiz-adv-x="1642" d="M82 717q0 210 96 381.5t265.5 269.5t377.5 98t377.5 -98t266 -269.5t96.5 -381.5t-96.5 -382t-266 -270t-377.5 -98q-156 0 -293 57.5t-235 157t-154.5 239t-56.5 296.5zM432 717q0 -183 109.5 -300.5t279.5 -117.5t279.5 117.5t109.5 300.5t-109.5 300.5t-279.5 117.5 t-279.5 -117.5t-109.5 -300.5z" />
<glyph unicode="P" horiz-adv-x="1212" d="M143 0v1434h555q111 0 199.5 -39t142.5 -104.5t82.5 -146t28.5 -169.5q0 -92 -31.5 -177t-90 -154t-151.5 -110.5t-206 -41.5h-180v-492h-349zM492 807h157q73 0 114.5 49t41.5 113q0 60 -38.5 102.5t-109.5 42.5h-165v-307z" />
<glyph unicode="Q" horiz-adv-x="1648" d="M82 717q0 158 57 298t155 239.5t236.5 157.5t294.5 58q208 0 378 -98.5t267 -271t97 -383.5q0 -196 -85 -360t-235 -265q38 -67 109 -116t196 -97l-180 -309q-145 55 -258.5 162.5t-169.5 240.5q-52 -8 -119 -8q-156 0 -294.5 58t-236.5 158t-155 239.5t-57 296.5z M434 717q0 -183 109.5 -300.5t281.5 -117.5q170 0 279.5 117.5t109.5 300.5q0 184 -109.5 302t-279.5 118q-172 0 -281.5 -118t-109.5 -302z" />
<glyph unicode="R" horiz-adv-x="1304" d="M143 0v1434h564q119 0 213 -37.5t150 -101.5t85 -142t29 -166q0 -124 -68 -223t-194 -154l352 -610h-404l-286 520h-92v-520h-349zM492 823h176q76 0 122 41t46 111q0 66 -41.5 102.5t-114.5 36.5h-188v-291z" />
<glyph unicode="S" horiz-adv-x="1206" d="M61 231l234 246q57 -82 152.5 -127t187.5 -45q71 0 115.5 27.5t44.5 75.5q0 15 -4 27.5t-14 23.5t-19 19.5t-28 17t-31.5 14t-38.5 13t-40.5 11.5t-45.5 12.5t-46 12.5q-50 13 -86.5 25t-84 32t-82 42t-70 55t-57.5 71t-36 91t-14 114q0 111 44.5 202.5t119.5 151 t170 91.5t199 32q137 0 265 -58t220 -173l-223 -236q-44 62 -124 98t-159 36q-72 0 -118 -28t-46 -81q0 -44 38 -75.5t74 -43.5t122 -35q19 -5 29 -8q53 -14 87.5 -24t85 -29t83.5 -39.5t70 -52.5t59 -70t36.5 -90.5t14.5 -114.5q0 -112 -44 -204t-118 -150t-169.5 -89.5 t-201.5 -31.5q-156 0 -302.5 67t-248.5 197z" />
<glyph unicode="T" horiz-adv-x="1236" d="M20 1102v332h1197v-332h-424v-1102h-349v1102h-424z" />
<glyph unicode="U" horiz-adv-x="1413" d="M123 520v914h348v-885q0 -118 62.5 -183t173.5 -65t173 65t62 183v885h348v-914q0 -253 -146.5 -402t-436.5 -149q-147 0 -260 40t-183 114t-105.5 174t-35.5 223z" />
<glyph unicode="V" horiz-adv-x="1456" d="M20 1434h375l334 -949l332 949h375l-541 -1434h-334z" />
<glyph unicode="W" horiz-adv-x="2127" d="M20 1434h371l254 -889l252 889h334l252 -889l254 889h370l-456 -1434h-334l-252 813l-254 -813h-334z" />
<glyph unicode="X" horiz-adv-x="1527" d="M20 0l541 743l-498 691h418l283 -408l283 408h417l-497 -691l540 -743h-426l-317 459l-318 -459h-426z" />
<glyph unicode="Y" horiz-adv-x="1429" d="M0 1434h420l295 -510l295 510h420l-541 -826v-608h-348v608z" />
<glyph unicode="Z" horiz-adv-x="1263" d="M61 0v311l660 791h-643v332h1093v-312l-655 -790h686v-332h-1141z" />
<glyph unicode="a" horiz-adv-x="1435" d="M61 539q0 117 34.5 218t97.5 175t156.5 116t207.5 42t195 -41t116 -111v127h330v-682q0 -45 25 -68.5t63 -23.5q36 0 70 18l69 -246q-103 -75 -229 -75q-98 0 -173.5 48.5t-102.5 139.5q-48 -89 -143.5 -138.5t-221.5 -49.5q-146 0 -259 71.5t-174 196.5t-61 283z M401 539q0 -113 62.5 -182.5t163.5 -69.5q104 0 167.5 69.5t63.5 182.5t-63.5 182.5t-167.5 69.5q-101 0 -163.5 -69.5t-62.5 -182.5z" />
<glyph unicode="b" horiz-adv-x="1318" d="M123 0v1434h340v-476q33 58 113.5 95t185.5 37q151 0 264.5 -73t172 -197.5t58.5 -280.5t-59 -280.5t-172 -197.5t-262 -73q-107 0 -194.5 38t-127.5 101v-127h-319zM461 539q0 -113 63.5 -182.5t167.5 -69.5q101 0 163.5 69.5t62.5 182.5t-62.5 182.5t-163.5 69.5 q-104 0 -167.5 -69.5t-63.5 -182.5z" />
<glyph unicode="c" horiz-adv-x="1112" d="M61 532q0 242 157 400t394 158q143 0 260 -58.5t191 -169.5l-242 -194q-76 118 -205 118q-99 0 -158 -65t-59 -178t67 -182.5t169 -69.5q65 0 128.5 39t102.5 106l226 -164q-80 -134 -208 -209t-280 -75q-250 0 -396.5 151t-146.5 393z" />
<glyph unicode="d" horiz-adv-x="1320" d="M61 539q0 156 58.5 280.5t172.5 197.5t265 73q105 0 185.5 -37t113.5 -95v476h342v-1434h-321v127q-40 -63 -127.5 -101t-194.5 -38q-149 0 -262.5 73t-172.5 197.5t-59 280.5zM401 539q0 -113 62.5 -182.5t163.5 -69.5q104 0 167.5 69.5t63.5 182.5t-63.5 182.5 t-167.5 69.5q-101 0 -163.5 -69.5t-62.5 -182.5z" />
<glyph unicode="e" horiz-adv-x="1161" d="M61 528q0 246 156 404t404 158q228 0 353.5 -142.5t125.5 -408.5v-117h-686q16 -62 78.5 -102.5t156.5 -40.5q70 0 134.5 28.5t111.5 75.5l166 -213q-185 -182 -449 -182q-247 0 -399 149t-152 391zM406 659h356q0 64 -43.5 109t-122.5 45q-72 0 -121.5 -39.5 t-68.5 -114.5z" />
<glyph unicode="f" horiz-adv-x="858" d="M0 762v303h190v43q0 194 120 299.5t313 105.5q164 0 297 -86l-125 -262q-56 41 -133 41q-57 0 -94.5 -28t-37.5 -78v-35h244v-303h-244v-762h-340v762h-190z" />
<glyph unicode="g" horiz-adv-x="1339" d="M61 -154l293 154q36 -80 113.5 -128t165.5 -48q117 0 190.5 58.5t73.5 160.5v109q-39 -62 -118.5 -94.5t-188.5 -32.5q-226 0 -368 149t-142 383q0 235 141 384t371 149q118 0 204 -41t111 -107v123h330v-989q0 -168 -83.5 -296.5t-222 -194.5t-308.5 -66 q-191 0 -342.5 89t-219.5 238zM420 557q0 -109 68.5 -171t173.5 -62q107 0 172 61.5t65 171.5t-65 172t-172 62q-105 0 -173.5 -62.5t-68.5 -171.5z" />
<glyph unicode="h" horiz-adv-x="1249" d="M123 0v1434h340v-463q47 56 123.5 87.5t165.5 31.5q77 0 143.5 -25t118.5 -74.5t82 -131t30 -187.5v-672h-340v629q0 81 -44 120t-109 39q-70 0 -120 -49.5t-50 -144.5v-594h-340z" />
<glyph unicode="i" horiz-adv-x="614" d="M92 1348q0 86 62 145t153 59t153 -59t62 -145t-62 -145.5t-153 -59.5t-153 59.5t-62 145.5zM137 0v1065h342v-1065h-342z" />
<glyph unicode="j" horiz-adv-x="632" d="M-164 -420l94 270q51 -28 93 -28q54 0 89 33.5t35 93.5v1116h340v-1124q0 -187 -108 -304.5t-285 -117.5q-127 0 -258 61zM100 1348q0 86 62 145t153 59t153 -59t62 -145t-62 -145.5t-153 -59.5t-153 59.5t-62 145.5z" />
<glyph unicode="k" horiz-adv-x="1318" d="M123 0v1434h340v-758l350 389h451l-488 -498l553 -567h-479l-387 416v-416h-340z" />
<glyph unicode="l" horiz-adv-x="751" d="M123 373v1059h340v-1024q0 -54 31 -85.5t79 -31.5q45 0 91 24l77 -260q-128 -67 -254 -67q-158 0 -261 101t-103 284z" />
<glyph unicode="m" horiz-adv-x="1802" d="M123 0v1065h330v-109q95 134 272 134q218 0 301 -179q98 179 307 179q158 0 252 -104t94 -314v-672h-340v629q0 84 -31 121.5t-94 37.5q-143 0 -143 -194v-594h-340v629q0 84 -31 121.5t-94 37.5q-143 0 -143 -194v-594h-340z" />
<glyph unicode="n" horiz-adv-x="1249" d="M123 0v1065h330v-109q45 64 125 99t174 35q77 0 143.5 -25t118.5 -74.5t82 -131t30 -187.5v-672h-340v629q0 81 -44 120t-109 39q-70 0 -120 -49.5t-50 -144.5v-594h-340z" />
<glyph unicode="o" horiz-adv-x="1241" d="M61 539q0 154 73 280.5t201.5 198.5t285.5 72t285.5 -72t201 -198.5t72.5 -280.5t-72.5 -280.5t-201 -198.5t-285.5 -72t-285.5 72t-201.5 198.5t-73 280.5zM401 539q0 -111 60 -179.5t160 -68.5t159.5 68.5t59.5 179.5t-59.5 179t-159.5 68q-101 0 -160.5 -68 t-59.5 -179z" />
<glyph unicode="p" horiz-adv-x="1318" d="M123 -453v1518h330v-111q35 60 118.5 98t190.5 38q151 0 264.5 -73t172 -196t58.5 -276t-59 -276t-172 -196t-262 -73q-95 0 -175 30t-126 83v-566h-340zM461 545q0 -108 64 -177t167 -69q101 0 163.5 69t62.5 177t-62.5 177t-163.5 69q-103 0 -167 -69t-64 -177z" />
<glyph unicode="q" horiz-adv-x="1318" d="M61 545q0 153 58.5 276t172.5 196t265 73q115 0 197 -43t112 -111v129h330v-1518h-340v566q-46 -53 -126 -83t-175 -30q-149 0 -262.5 73t-172.5 196t-59 276zM401 545q0 -108 62.5 -177t163.5 -69q103 0 167 69t64 177t-64 177t-167 69q-101 0 -163.5 -69t-62.5 -177z " />
<glyph unicode="r" horiz-adv-x="878" d="M123 0v1065h330v-154q29 85 104 126.5t172 41.5q72 0 129 -16l-45 -318q-65 19 -115 19q-106 0 -170.5 -65t-64.5 -175v-524h-340z" />
<glyph unicode="s" horiz-adv-x="1064" d="M51 203l193 231q61 -73 157.5 -114t180.5 -41q94 0 94 47q0 26 -29 41.5t-112 29.5q-46 8 -75 14t-76.5 20t-78.5 29t-68 41t-58.5 57.5t-36.5 77t-15 99.5q0 86 34.5 155t93 112t133.5 65.5t159 22.5q119 0 228 -40t186 -114l-170 -217q-50 44 -116.5 66t-123.5 22 q-90 0 -90 -57q0 -27 28.5 -38.5t131.5 -31.5q39 -7 57.5 -11t57.5 -13.5t60.5 -17.5t55.5 -22.5t53 -30t43 -39t36 -50t21 -61.5t9 -75q0 -116 -64.5 -202t-167 -128t-225.5 -42q-147 0 -282.5 58t-223.5 157z" />
<glyph unicode="t" horiz-adv-x="937" d="M0 762v303h203v250h342v-250h293v-303h-293v-316q0 -75 41 -115t108 -40q71 0 144 43l80 -252q-152 -94 -312 -94q-172 0 -287.5 105.5t-115.5 287.5v381h-203z" />
<glyph unicode="u" horiz-adv-x="1202" d="M102 406v659h340v-616q0 -82 38.5 -121t101.5 -39q68 0 112.5 49t44.5 145v582h340v-1065h-329v121q-46 -64 -120 -98.5t-167 -34.5q-160 0 -260.5 105t-100.5 313z" />
<glyph unicode="v" horiz-adv-x="1181" d="M20 1065h369l203 -604l201 604h368l-422 -1065h-297z" />
<glyph unicode="w" horiz-adv-x="1835" d="M20 1065h365l180 -604l180 604h345l180 -602l160 602h385l-385 -1065h-318l-194 604l-195 -604h-317z" />
<glyph unicode="x" horiz-adv-x="1230" d="M0 0l412 545l-392 520h424l172 -256l170 256h424l-391 -520l412 -545h-426l-189 281l-190 -281h-426z" />
<glyph unicode="y" horiz-adv-x="1280" d="M41 -141l299 137q25 -77 84 -125.5t160 -48.5q107 0 170 59t63 162v129q-37 -73 -116 -112.5t-185 -39.5q-178 0 -285.5 108.5t-107.5 315.5v621h340v-569q0 -85 45 -129.5t123 -44.5q82 0 134 49t52 145v549h340v-989q0 -253 -162.5 -405t-419.5 -152q-190 0 -336 95.5 t-198 244.5z" />
<glyph unicode="z" horiz-adv-x="1087" d="M72 762v303h915v-293l-467 -469h496v-303h-940v293l459 469h-463z" />
<glyph unicode="&#xad;" d="M92 451v303h670v-303h-670z" />
<glyph unicode="&#x2000;" horiz-adv-x="776" />
<glyph unicode="&#x2001;" horiz-adv-x="1552" />
<glyph unicode="&#x2002;" horiz-adv-x="776" />
<glyph unicode="&#x2003;" horiz-adv-x="1552" />
<glyph unicode="&#x2004;" horiz-adv-x="517" />
<glyph unicode="&#x2005;" horiz-adv-x="388" />
<glyph unicode="&#x2006;" horiz-adv-x="258" />
<glyph unicode="&#x2007;" horiz-adv-x="258" />
<glyph unicode="&#x2008;" horiz-adv-x="194" />
<glyph unicode="&#x2009;" horiz-adv-x="310" />
<glyph unicode="&#x200a;" horiz-adv-x="86" />
<glyph unicode="&#x2010;" d="M92 451v303h670v-303h-670z" />
<glyph unicode="&#x2011;" d="M92 451v303h670v-303h-670z" />
<glyph unicode="&#x2012;" d="M92 451v303h670v-303h-670z" />
<glyph unicode="&#x2013;" horiz-adv-x="1208" d="M92 451v303h1024v-303h-1024z" />
<glyph unicode="&#x2014;" horiz-adv-x="2232" d="M92 451v303h2048v-303h-2048z" />
<glyph unicode="&#x202f;" horiz-adv-x="310" />
<glyph unicode="&#x205f;" horiz-adv-x="388" />
<glyph unicode="&#x25fc;" horiz-adv-x="1064" d="M0 0v1065h1065v-1065h-1065z" />
</font>
</defs>
</svg>
